<?xml version="1.0" encoding="UTF-8" standalone="no"?>
<svg width="24px" height="24px" viewBox="0 0 24 24" version="1.1" xmlns="http://www.w3.org/2000/svg" xmlns:xlink="http://www.w3.org/1999/xlink">
    <!-- Generator: sketchtool 41.2 (35397) - http://www.bohemiancoding.com/sketch -->
    <title>0AA47849-BB19-468D-8AC5-E74308231B96</title>
    <desc>Created with sketchtool.</desc>
    <defs></defs>
    <g id="味噌的事" stroke="none" stroke-width="1" fill="none" fill-rule="evenodd">
        <g id="味噌圈子-个人中心" transform="translate(-16.000000, -403.000000)">
            <g id="Help-Section-Copy" transform="translate(0.000000, 391.000000)">
                <g id="Group-2">
                    <g id="ic_lock" transform="translate(16.000000, 12.000000)">
                        <g id="Icon-24px">
                            <polygon id="Shape" points="0 0 24 0 24 24 0 24"></polygon>
                            <path d="M8.5676515,3 C11.1847198,3.04165745 13.8042385,2.96079298 16.4188563,3.03430614 C17.227501,3.02940526 17.8719663,3.77678899 17.8670654,4.56337973 C17.9454795,6.75897259 17.8548132,9.95946632 17.8989211,12.1575096 C18.6953136,12.1722122 19.4990574,12.1183026 20.2880986,12.2408245 C21.0452841,12.3927517 21.2560218,13.4978994 20.6385113,13.9512306 C18.6855119,15.7596541 16.6222427,17.4504567 14.6471893,19.2368263 C13.8851029,19.8935438 13.0887104,20.7315938 12.0007158,20.6972876 C10.9127211,20.7266929 10.1138782,19.8935438 9.35424224,19.2368263 C7.37918885,17.4504567 5.32082055,15.7572037 3.37027154,13.9463297 C2.74540973,13.4929986 2.94634568,12.3952021 3.71088248,12.2383741 C4.5023741,12.1183026 5.30611791,12.1722122 6.10251041,12.1599601 C6.12456436,10.2020597 6.10251041,7.2441594 6.10251041,5.28625908 C6.1147626,4.63199201 6.0951591,3.85275258 6.65875994,3.40187191 C7.17090158,2.92158597 7.92563662,3.02940526 8.5676515,3 Z M9.44721311,7.43238124 C9.95935475,8.09154918 10.5303069,8.69925792 11.1159617,9.29226403 C10.525406,9.33882236 9.93239992,9.38047981 9.34184426,9.42703814 C9.26097979,9.80930654 9.2364754,10.2013767 9.28793461,10.5909964 C9.94710255,10.6155008 10.6062705,10.6375547 11.2654384,10.66696 C11.2654384,10.9267065 11.2654384,11.1864529 11.2678889,11.4461994 C10.5695139,11.482956 9.87113896,11.5417665 9.18256576,11.6667389 C9.22667365,12.0147011 9.28058329,12.360213 9.34429469,12.7057248 C9.96425562,12.7547336 10.586667,12.7865893 11.2066279,12.8208954 C11.3340507,13.4457572 11.123313,14.5582563 12.0495787,14.5509049 C12.9758445,14.5656076 12.777359,13.4580094 12.8998809,12.8306972 C13.5614993,12.6934726 14.5735304,13.0022278 14.9165917,12.2474928 C14.8773847,11.2158582 13.5271931,11.5883249 12.8410704,11.443749 L12.8410704,10.6694104 C13.5100401,10.6400052 14.1790098,10.6155008 14.8479795,10.5762938 C14.8381777,10.1940254 14.8136733,9.81175698 14.7769167,9.43193902 C14.1765593,9.38047981 13.5737515,9.33882236 12.973394,9.29226403 C13.5369949,8.5007724 14.9312944,7.86120797 14.387297,6.71685321 C13.3213563,6.60658348 12.7749085,7.67742508 12.0471283,8.25327812 C11.3291498,7.69947903 10.8072065,6.65804269 9.7780223,6.71930365 C9.69715783,6.89818566 9.53052802,7.25349923 9.44721311,7.43238124 Z" id="Shape" fill-opacity="0.7" fill="#000000"></path>
                        </g>
                    </g>
                </g>
            </g>
        </g>
    </g>
</svg>