<?xml version="1.0" encoding="UTF-8" standalone="no"?>
<svg width="24px" height="24px" viewBox="0 0 24 24" version="1.1" xmlns="http://www.w3.org/2000/svg" xmlns:xlink="http://www.w3.org/1999/xlink">
    <!-- Generator: sketchtool 41.2 (35397) - http://www.bohemiancoding.com/sketch -->
    <title>F32D26A2-FEA5-4219-88BF-9C9B679EF5F5</title>
    <desc>Created with sketchtool.</desc>
    <defs></defs>
    <g id="味噌的事" stroke="none" stroke-width="1" fill="none" fill-rule="evenodd">
        <g id="味噌圈子-个人中心" transform="translate(-16.000000, -295.000000)">
            <g id="Help-Section" transform="translate(0.000000, 188.000000)">
                <g id="help-copy" transform="translate(16.000000, 95.000000)">
                    <g id="ic_security" transform="translate(0.000000, 12.000000)">
                        <polygon id="Shape" points="0 0 24 0 24 24 0 24"></polygon>
                        <g id="ic_bookmark" transform="translate(4.000000, 3.000000)" fill="#FFAC32">
                            <g id="Icon-24px">
                                <path d="M2,0 C0.9,0 0.01,0.9 0.01,2 L0,19 L8,14 L16,19 L16,2 C16,0.9 15.1,0 14,0 L2,0 Z M7.42,10.812 C5.36,8.944 4,7.712 4,6.2 C4,4.968 4.968,4 6.2,4 C6.896,4 7.564,4.324 8,4.836 C8.436,4.324 9.104,4 9.8,4 C11.032,4 12,4.968 12,6.2 C12,7.712 10.64,8.944 8.58,10.816 L8,11.34 L7.42,10.812 Z" id="Combined-Shape"></path>
                            </g>
                        </g>
                    </g>
                </g>
            </g>
        </g>
    </g>
</svg>