<?xml version="1.0" encoding="UTF-8" standalone="no"?>
<svg width="280px" height="56px" viewBox="0 0 280 56" version="1.1" xmlns="http://www.w3.org/2000/svg" xmlns:xlink="http://www.w3.org/1999/xlink">
    <!-- Generator: sketchtool 40.3 (33839) - http://www.bohemiancoding.com/sketch -->
    <title>53469197-B854-4B10-8C2A-7EDB02795872</title>
    <desc>Created with sketchtool.</desc>
    <defs>
        <linearGradient x1="50%" y1="39.0306122%" x2="50%" y2="0%" id="linearGradient-1">
            <stop stop-color="#CCCCCC" offset="0%"></stop>
            <stop stop-color="#DDDDDD" offset="100%"></stop>
        </linearGradient>
        <rect id="path-2" x="0" y="0" width="280" height="362"></rect>
    </defs>
    <g id="Page-1" stroke="none" stroke-width="1" fill="none" fill-rule="evenodd">
        <g id="味噌提示" transform="translate(-40.000000, -175.000000)">
            <g id="Group-9" transform="translate(40.000000, 135.000000)">
                <g id="Rectangle-16-+-好像出了点问题?-长按识别二维码关注味噌-Mask" transform="translate(0.000000, 40.000000)">
                    <mask id="mask-3" fill="white">
                        <use xlink:href="#path-2"></use>
                    </mask>
                    <use id="Mask" fill="url(#linearGradient-1)" xlink:href="#path-2"></use>
                    <g id="Group" mask="url(#mask-3)" fill="#FFFFFF">
                        <g transform="translate(0.000000, 12.000000)">
                            <path d="M0,16.9782779 C0,16.9782779 41.2448274,-9.26269697 105.307479,27.9782779 C169.370131,65.2192528 205.505331,33.7931761 236.941828,17.9782779 C270.807758,2.50093332 287.482431,16.9782779 287.482431,16.9782779 L287.202216,377.978278 L0,377.978278" id="Path-4" fill-opacity="0.599999964"></path>
                            <path d="M173,20.9782779 C173,20.9782779 214.244827,-5.26269697 278.307479,31.9782779 C342.370131,69.2192528 378.505331,37.7931761 409.941828,21.9782779 C443.807758,6.50093332 460.482431,20.9782779 460.482431,20.9782779 L460.202216,381.978278 L173,381.978278" id="Path-4-Copy" fill-opacity="0.599999964"></path>
                            <path d="M1.36044223e-13,17 C1.36044223e-13,17 40.0770051,27.6654715 65.2513817,17.0000003 C90.4257583,6.33452911 126.544971,-13.7108556 173.916898,15 C221.288824,43.7108556 255.239485,39.8247736 287.202216,17 C287.202216,47.6422351 287.202216,378 287.202216,378 L0,378" id="Path-3" fill-opacity="0.599999964"></path>
                            <path d="M0,17.1096483 C0,17.1096483 66.5213829,40.6493319 127.645429,17.1096482 C192.653402,-5.68566992 189.438015,42.5094507 287.202216,17.1096483 C287.202216,33.6845526 287.202216,377 287.202216,377 L0,377" id="Path-5"></path>
                        </g>
                    </g>
                </g>
            </g>
        </g>
    </g>
</svg>