<?xml version="1.0" encoding="UTF-8" standalone="no"?>
<svg width="14px" height="14px" viewBox="0 0 14 14" version="1.1" xmlns="http://www.w3.org/2000/svg" xmlns:xlink="http://www.w3.org/1999/xlink">
    <!-- Generator: sketchtool 41.2 (35397) - http://www.bohemiancoding.com/sketch -->
    <title>6A9407FD-FD7D-4DC2-AEF2-421B140EF336</title>
    <desc>Created with sketchtool.</desc>
    <defs></defs>
    <g id="味噌的事" stroke="none" stroke-width="1" fill="none" fill-rule="evenodd" fill-opacity="0.54">
        <g id="味噌圈子-个人主页" transform="translate(-271.000000, -96.000000)" fill="#000000">
            <g id="Dynamic-group" transform="translate(263.000000, 88.000000)">
                <g id="8:8" transform="translate(8.000000, 8.000000)">
                    <path d="M12.8387563,2.24553226 C12.6237355,2.03052111 12.2751337,2.03052111 12.0601419,2.24553226 L6.60990709,7.69553719 C6.39488631,7.91052081 6.39488631,8.25910742 6.60990709,8.47411856 C6.82490034,8.68910218 7.17350209,8.68910218 7.38849397,8.47411856 L12.8387549,3.02411364 C13.0537481,2.80910249 13.0537481,2.46051588 12.8387563,2.24553226 Z M10.8196865,8.0916846 C10.5184129,8.0916846 10.2741513,8.3359091 10.2741513,8.63719639 L10.2741513,11.3647709 C10.2741513,11.6660596 10.0299171,11.9102827 9.7286161,11.9102827 L2.63660542,11.9102827 C2.33530437,11.9102827 2.09107024,11.6660582 2.09107024,11.3647709 L2.09107024,2.63653537 C2.09107024,2.33527423 2.33530437,2.09102358 2.63660542,2.09102358 L8.09198346,2.09102358 C8.39328451,2.09102358 8.63751865,1.84679908 8.63751865,1.54551179 C8.63751865,1.24425065 8.39328451,1 8.09198346,1 L2.09107037,1 C1.48849579,1 1,1.48847515 1,2.09102495 L1,11.9102988 C1,12.5128472 1.48849579,13.0013513 2.09107037,13.0013513 L10.2741512,13.0013513 C10.8767533,13.0013513 11.3652216,12.5128486 11.3652216,11.9102988 L11.3652216,8.63719659 C11.3652217,8.3359091 11.1209875,8.0916846 10.8196865,8.0916846 Z" id="Shape"></path>
                </g>
            </g>
        </g>
    </g>
</svg>