<?xml version="1.0" encoding="UTF-8" standalone="no"?>
<svg width="24px" height="24px" viewBox="0 0 24 24" version="1.1" xmlns="http://www.w3.org/2000/svg" xmlns:xlink="http://www.w3.org/1999/xlink">
    <!-- Generator: sketchtool 41.2 (35397) - http://www.bohemiancoding.com/sketch -->
    <title>15C61448-4D0F-4557-886D-4FBA2F2D709C</title>
    <desc>Created with sketchtool.</desc>
    <defs></defs>
    <g id="味噌的事" stroke="none" stroke-width="1" fill="none" fill-rule="evenodd">
        <g id="味噌圈子-个人中心" transform="translate(-16.000000, -463.000000)">
            <g id="Help-Section" transform="translate(0.000000, 451.000000)">
                <g id="help" transform="translate(16.000000, 0.000000)">
                    <g id="ic_feedback" transform="translate(0.000000, 12.000000)">
                        <g id="Icon-24px">
                            <polygon id="Shape" points="0 0 24 0 24 24 0 24"></polygon>
                            <path d="M20,2 L4,2 C2.9,2 2.01,2.9 2.01,4 L2,22 L6,18 L20,18 C21.1,18 22,17.1 22,16 L22,4 C22,2.9 21.1,2 20,2 Z M13.3738625,12.7925958 C12.684478,13.2322032 11.8652095,13.4919713 10.9859946,13.4919713 C8.50820692,13.4919713 6.5,11.4837644 6.5,8.99598565 C6.5,6.50820692 8.50820692,4.5 10.9959857,4.5 C13.4837644,4.5 15.4919713,6.50820692 15.4919713,8.99598565 C15.4919713,9.87520062 15.2322032,10.684478 14.7925958,11.3838536 L17.6999998,14.2812666 L16.2812666,15.6999998 L13.3738625,12.7925958 Z M8.5,9 C8.5,10.38 9.62,11.5 11,11.5 C12.38,11.5 13.5,10.38 13.5,9 C13.5,7.62 12.38,6.5 11,6.5 C9.62,6.5 8.5,7.62 8.5,9 Z" id="Combined-Shape" fill="#000000" opacity="0.699999988"></path>
                        </g>
                    </g>
                </g>
            </g>
        </g>
    </g>
</svg>