<?xml version="1.0" encoding="UTF-8" standalone="no"?>
<svg width="24px" height="24px" viewBox="0 0 24 24" version="1.1" xmlns="http://www.w3.org/2000/svg" xmlns:xlink="http://www.w3.org/1999/xlink">
    <!-- Generator: sketchtool 40.3 (33839) - http://www.bohemiancoding.com/sketch -->
    <title>6155E6A8-E58D-479D-9DE3-8E9C2CAE9044</title>
    <desc>Created with sketchtool.</desc>
    <defs>
        <polygon id="path-1" points="24 24 0 24 0 0 24 0"></polygon>
    </defs>
    <g id="Page-1" stroke="none" stroke-width="1" fill="none" fill-rule="evenodd">
        <g id="发布味噌的事" transform="translate(-16.000000, -84.000000)">
            <g id="toolbar" transform="translate(0.000000, 72.000000)">
                <g id="ic_text_fields" transform="translate(16.000000, 12.000000)">
                    <mask id="mask-2" fill="white">
                        <use xlink:href="#path-1"></use>
                    </mask>
                    <g id="a"></g>
                    <path d="M6,19.6300001 L6,4 L11.6143476,4 C12.5804925,4 13.4446425,4.08766739 14.2068235,4.26300481 C14.9690046,4.43834223 15.6148807,4.70492267 16.1444712,5.06275413 C16.6740618,5.42058559 17.0784053,5.86965734 17.3575138,6.40998285 C17.6366224,6.95030836 17.7761745,7.58544967 17.7761745,8.31542586 C17.7761745,8.67325732 17.7368137,9.0185595 17.6580907,9.35134276 C17.5793678,9.68412602 17.4523396,9.99722385 17.2770021,10.2906457 C17.1016647,10.5840674 16.8744452,10.8470696 16.5953366,11.0796601 C16.3162281,11.3122505 15.9762933,11.5036875 15.575522,11.6539767 C16.0407029,11.7756394 16.4343117,11.9509742 16.75636,12.1799863 C17.0784083,12.4089985 17.3396213,12.6737898 17.540007,12.9743682 C17.7403926,13.2749466 17.8853121,13.5987792 17.97477,13.9458758 C18.0642279,14.2929723 18.1089561,14.645431 18.1089561,15.0032624 C18.1089561,16.5490944 17.6151561,17.7066618 16.6275413,18.4759994 C15.6399265,19.2453371 14.1764177,19.6300001 12.2369712,19.6300001 L6,19.6300001 Z M9.76794646,12.9851031 L9.76794646,16.7315798 L12.2369712,16.7315798 C12.6162725,16.7315798 12.9401052,16.6850624 13.2084788,16.5920262 C13.4768524,16.49899 13.6951263,16.3719617 13.8633071,16.2109376 C14.0314879,16.0499134 14.1549379,15.8620547 14.2336608,15.6473559 C14.3123837,15.432657 14.3517446,15.20007 14.3517446,14.949588 C14.3517446,14.6490096 14.315962,14.3770617 14.2443957,14.1337363 C14.1728294,13.8904109 14.058325,13.6846609 13.9008792,13.5164802 C13.7434333,13.3482994 13.5394725,13.2176928 13.2889904,13.1246567 C13.0385084,13.0316205 12.7343562,12.9851031 12.3765248,12.9851031 L9.76794646,12.9851031 Z M9.76794646,10.5160783 L11.7324314,10.5160783 C12.5554437,10.5089217 13.1422785,10.3586348 13.4929534,10.065213 C13.8436282,9.77179116 14.018963,9.33882158 14.018963,8.76629124 C14.018963,8.10788135 13.8293151,7.63376178 13.4500138,7.34391829 C13.0707124,7.05407481 12.4588298,6.90915524 11.6143476,6.90915524 L9.76794646,6.90915524 L9.76794646,10.5160783 Z" id="B" stroke="#757575" stroke-width="0.599999964" fill-opacity="0.54" fill="#000000" mask="url(#mask-2)"></path>
                </g>
            </g>
        </g>
    </g>
</svg>