<?xml version="1.0" encoding="UTF-8" standalone="no"?>
<svg width="24px" height="24px" viewBox="0 0 24 24" version="1.1" xmlns="http://www.w3.org/2000/svg" xmlns:xlink="http://www.w3.org/1999/xlink">
    <!-- Generator: sketchtool 40.3 (33839) - http://www.bohemiancoding.com/sketch -->
    <title>486D945A-DE91-4E4F-8107-1B41CB711306</title>
    <desc>Created with sketchtool.</desc>
    <defs></defs>
    <g id="Symbols" stroke="none" stroke-width="1" fill="none" fill-rule="evenodd">
        <g id="ic_camera">
            <g id="ic_camera_alt">
                <g id="Icon-24px">
                    <path d="M9,2 L7.17,4 L4,4 C2.9,4 2,4.9 2,6 L2,18 C2,19.1 2.9,20 4,20 L20,20 C21.1,20 22,19.1 22,18 L22,6 C22,4.9 21.1,4 20,4 L16.83,4 L15,2 L9,2 Z M12,15.2 C13.7673112,15.2 15.2,13.7673112 15.2,12 C15.2,10.2326888 13.7673112,8.8 12,8.8 C10.2326888,8.8 8.8,10.2326888 8.8,12 C8.8,13.7673112 10.2326888,15.2 12,15.2 Z M12,17 C9.24,17 7,14.76 7,12 C7,9.24 9.24,7 12,7 C14.76,7 17,9.24 17,12 C17,14.76 14.76,17 12,17 Z" id="Combined-Shape" fill-opacity="0.54" fill="#000000"></path>
                    <polygon id="Shape" points="0 0 24 0 24 24 0 24"></polygon>
                </g>
            </g>
        </g>
    </g>
</svg>