<?xml version="1.0" encoding="UTF-8" standalone="no"?>
<svg width="24px" height="24px" viewBox="0 0 24 24" version="1.1" xmlns="http://www.w3.org/2000/svg" xmlns:xlink="http://www.w3.org/1999/xlink">
    <!-- Generator: sketchtool 40.3 (33839) - http://www.bohemiancoding.com/sketch -->
    <title>63BB2A3F-77E6-413E-8B4E-4243A44C7F9C</title>
    <desc>Created with sketchtool.</desc>
    <defs></defs>
    <g id="Symbols" stroke="none" stroke-width="1" fill="none" fill-rule="evenodd">
        <g id="ic_link">
            <g id="ic_insert_link" transform="translate(-1.000000, -1.000000)">
                <polygon id="Shape" points="1 1 25 1 25 25 1 25"></polygon>
                <path d="M7,9.28 L10.8054369,9.28 C11.3547189,9.28 11.8,8.84039307 11.8,8.27332195 L11.8,8.00667805 C11.8,7.45070511 11.3570312,7 10.8054369,7 L7,7 C3.688,7 1,9.688 1,13 C1,16.312 3.688,19 7,19 L10.8054369,19 C11.3547189,19 11.8,18.5603931 11.8,17.993322 L11.8,17.726678 C11.8,17.1707051 11.3570312,16.72 10.8054369,16.72 L7,16.72 C4.948,16.72 3.28,15.052 3.28,13 C3.28,10.948 4.948,9.28 7,9.28 Z M16.8087894,14.2 C17.3562199,14.2 17.8,13.759803 17.8,13.1960899 L17.8,12.8039101 C17.8,12.2494658 17.3498482,11.8 16.8087894,11.8 L9.19121056,11.8 C8.64378008,11.8 8.2,12.240197 8.2,12.8039101 L8.2,13.1960899 C8.2,13.7505342 8.65015178,14.2 9.19121056,14.2 L16.8087894,14.2 Z M15.1945631,7 C14.6452811,7 14.2,7.43960693 14.2,8.00667805 L14.2,8.27332195 C14.2,8.82929489 14.6429687,9.28 15.1945631,9.28 L19,9.28 C21.052,9.28 22.72,10.948 22.72,13 C22.72,15.052 21.052,16.72 19,16.72 L15.1945631,16.72 C14.6452811,16.72 14.2,17.1596069 14.2,17.726678 L14.2,17.993322 C14.2,18.5492949 14.6429687,19 15.1945631,19 L19,19 C22.312,19 25,16.312 25,13 C25,9.688 22.312,7 19,7 L15.1945631,7 Z" id="Shape" stroke="#757575" stroke-width="0.299999952" fill-opacity="0.54" fill="#000000" transform="translate(13.000000, 13.000000) rotate(-45.000000) translate(-13.000000, -13.000000) "></path>
            </g>
        </g>
    </g>
</svg>