<?xml version="1.0" encoding="UTF-8" standalone="no"?>
<svg width="40px" height="40px" viewBox="0 0 40 40" version="1.1" xmlns="http://www.w3.org/2000/svg" xmlns:xlink="http://www.w3.org/1999/xlink">
    <!-- Generator: sketchtool 41 (35326) - http://www.bohemiancoding.com/sketch -->
    <title>2CD9BE43-13BD-4CE3-B3CC-18F0C2B6EDFE</title>
    <desc>Created with sketchtool.</desc>
    <defs></defs>
    <g id="味噌的事" stroke="none" stroke-width="1" fill="none" fill-rule="evenodd">
        <g id="味噌的事-通知" transform="translate(-16.000000, -491.000000)">
            <g id="Group-13" transform="translate(16.000000, 136.000000)">
                <g id="Group-5" transform="translate(0.000000, 179.000000)">
                    <g id="Group-2-Copy-2" transform="translate(0.000000, 175.000000)">
                        <circle id="Oval" fill="#F5F5F5" cx="20" cy="21" r="20"></circle>
                        <g id="process" transform="translate(10.000000, 11.000000)" stroke-width="0.300000012" stroke="#000000" fill="#000000">
                            <g id="Group">
                                <path d="M11.9737298,2.01264928 C11.711258,1.95222471 11.4494987,2.11601636 11.3890741,2.37848819 C11.3286496,2.64096002 11.4924412,2.90271926 11.754913,2.96314383 C15.136614,3.74165728 17.6288964,6.68558407 17.808549,10.1830385 C17.8223658,10.4520212 18.05162,10.658874 18.3206026,10.6450573 C18.5895854,10.6312405 18.7964382,10.4019863 18.7826215,10.1330036 C18.5805219,6.19855547 15.7782897,2.88851058 11.9737298,2.01264928 Z M1.18793442,10.591606 C1.18793442,11.4496843 1.31086171,12.2918461 1.55033339,13.0991156 C1.62693152,13.3573313 1.89835169,13.5045613 2.15656733,13.4279632 C2.41478296,13.3513651 2.56201304,13.0799449 2.48541492,12.8217292 C2.27258311,12.104264 2.16329109,11.355516 2.16329109,10.591606 C2.16329109,7.08911681 4.48409222,4.04105296 7.79618722,3.07552839 C8.0547616,3.00015014 7.78179278,2.06376949 7.52321842,2.13914774 C3.79762,3.22521467 1.18793442,6.65268988 1.18793442,10.591606 Z M9.99115368,19.3948253 C12.5159784,19.3948253 14.8697393,18.3255013 16.5283576,16.4876077 C16.7088059,16.2876553 16.6929947,15.9792795 16.4930423,15.7988312 C16.2930898,15.6183829 15.984714,15.634194 15.8042657,15.8341465 C14.3286955,17.4692068 12.2370104,18.4194686 9.99115368,18.4194686 C7.90990946,18.4194686 5.95863761,17.6042548 4.50392368,16.174237 C4.31185,15.9854241 4.00308049,15.9880675 3.81426761,16.1801411 C3.62545473,16.3722148 3.62809809,16.6809843 3.82017175,16.8697972 C5.45550088,18.4773639 7.65150953,19.3948253 9.99115368,19.3948253 Z" id="Shape"></path>
                                <path d="M9.69417006,5.13961222 C11.111644,5.13961222 12.2607336,3.99052257 12.2607336,2.57304866 C12.2607336,1.15557473 11.111644,0.00648507782 9.69417006,0.00648507782 C8.27669615,0.00648507782 7.1276065,1.15557473 7.1276065,2.57304866 C7.1276065,3.99052257 8.27669615,5.13961222 9.69417006,5.13961222 L9.69417006,5.13961222 Z M9.69417006,4.16425554 C8.8153708,4.16425554 8.10296317,3.45184796 8.10296317,2.57304866 C8.10296317,1.69424936 8.8153708,0.98184177 9.69417006,0.98184177 C10.5729694,0.98184177 11.2853769,1.69424936 11.2853769,2.57304866 C11.2853769,3.45184796 10.5729694,4.16425554 9.69417006,4.16425554 L9.69417006,4.16425554 Z" id="Shape"></path>
                                <path d="M2.56656356,17.6129236 C3.98403749,17.6129236 5.13312714,16.4638339 5.13312714,15.04636 C5.13312714,13.6288861 3.98403749,12.4797965 2.56656356,12.4797965 C1.14908965,12.4797965 0,13.6288861 0,15.04636 C0,16.4638339 1.14908965,17.6129236 2.56656356,17.6129236 L2.56656356,17.6129236 Z M2.56656356,16.6375669 C1.68776428,16.6375669 0.975356673,15.9251593 0.975356673,15.04636 C0.975356673,14.1675608 1.68776428,13.4551531 2.56656356,13.4551531 C3.44536286,13.4551531 4.15777047,14.1675608 4.15777047,15.04636 C4.15777047,15.9251593 3.44536286,16.6375669 2.56656356,16.6375669 L2.56656356,16.6375669 Z" id="Shape"></path>
                                <path d="M17.4157438,17.0189564 C18.8332177,17.0189564 19.9823074,15.8698668 19.9823074,14.4523928 C19.9823074,13.0349189 18.8332177,11.8858293 17.4157438,11.8858293 C15.9982699,11.8858293 14.8491802,13.0349189 14.8491802,14.4523928 C14.8491802,15.8698668 15.9982699,17.0189564 17.4157438,17.0189564 L17.4157438,17.0189564 Z M17.4157438,16.0435997 C16.5369445,16.0435997 15.8245369,15.3311921 15.8245369,14.4523928 C15.8245369,13.5735935 16.5369445,12.861186 17.4157438,12.861186 C18.2945431,12.861186 19.0069507,13.5735935 19.0069507,14.4523928 C19.0069507,15.3311921 18.2945431,16.0435997 17.4157438,16.0435997 L17.4157438,16.0435997 Z" id="Shape"></path>
                            </g>
                        </g>
                    </g>
                </g>
            </g>
        </g>
    </g>
</svg>