<?xml version="1.0" encoding="UTF-8" standalone="no"?>
<svg width="24px" height="24px" viewBox="0 0 24 24" version="1.1" xmlns="http://www.w3.org/2000/svg" xmlns:xlink="http://www.w3.org/1999/xlink">
    <!-- Generator: sketchtool 40.3 (33839) - http://www.bohemiancoding.com/sketch -->
    <title>EF7A6312-6E91-4A1F-9864-AE765203B00C</title>
    <desc>Created with sketchtool.</desc>
    <defs></defs>
    <g id="Symbols" stroke="none" stroke-width="1" fill="none" fill-rule="evenodd">
        <g id="ic_visibility">
            <g id="Icon-24px">
                <g>
                    <polygon id="Shape" points="0 0 24 0 24 24 0 24"></polygon>
                    <path d="M12,4.5 C7,4.5 2.73,7.61 1,12 C2.73,16.39 7,19.5 12,19.5 C17,19.5 21.27,16.39 23,12 C21.27,7.61 17,4.5 12,4.5 L12,4.5 Z M12,17 C9.24,17 7,14.76 7,12 C7,9.24 9.24,7 12,7 C14.76,7 17,9.24 17,12 C17,14.76 14.76,17 12,17 L12,17 Z M12,9 C10.34,9 9,10.34 9,12 C9,13.66 10.34,15 12,15 C13.66,15 15,13.66 15,12 C15,10.34 13.66,9 12,9 L12,9 Z" id="Shape" fill-opacity="0.54" fill="#000000"></path>
                </g>
            </g>
        </g>
    </g>
</svg>