<?xml version="1.0" encoding="UTF-8" standalone="no"?>
<svg width="24px" height="24px" viewBox="0 0 24 24" version="1.1" xmlns="http://www.w3.org/2000/svg" xmlns:xlink="http://www.w3.org/1999/xlink">
    <!-- Generator: sketchtool 40.3 (33839) - http://www.bohemiancoding.com/sketch -->
    <title>C5FF0E48-BD78-4CB8-96E5-F800A1F0A579</title>
    <desc>Created with sketchtool.</desc>
    <defs>
        <polygon id="path-1" points="24 24 0 24 0 0 24 0"></polygon>
    </defs>
    <g id="Page-1" stroke="none" stroke-width="1" fill="none" fill-rule="evenodd">
        <g id="发布味噌的事" transform="translate(-16.000000, -84.000000)">
            <g id="toolbar" transform="translate(0.000000, 72.000000)">
                <g id="ic_text_fields" transform="translate(16.000000, 12.000000)">
                    <mask id="mask-2" fill="white">
                        <use xlink:href="#path-1"></use>
                    </mask>
                    <g id="a"></g>
                    <g id="Group-5" mask="url(#mask-2)">
                        <polygon id="Shape" points="0 0 24 0 24 24 0 24"></polygon>
                        <path d="M21.41,11.58 L12.41,2.58 C12.05,2.22 11.55,2 11,2 L4,2 C2.9,2 2,2.9 2,4 L2,11 C2,11.55 2.22,12.05 2.59,12.42 L11.59,21.42 C11.95,21.78 12.45,22 13,22 C13.55,22 14.05,21.78 14.41,21.41 L21.41,14.41 C21.78,14.05 22,13.55 22,13 C22,12.45 21.77,11.94 21.41,11.58 L21.41,11.58 Z M5.5,7 C4.67,7 4,6.33 4,5.5 C4,4.67 4.67,4 5.5,4 C6.33,4 7,4.67 7,5.5 C7,6.33 6.33,7 5.5,7 L5.5,7 Z M17.27,15.27 L13,19.54 L8.73,15.27 C8.28,14.81 8,14.19 8,13.5 C8,12.12 9.12,11 10.5,11 C11.19,11 11.82,11.28 12.27,11.74 L13,12.46 L13.73,11.73 C14.18,11.28 14.81,11 15.5,11 C16.88,11 18,12.12 18,13.5 C18,14.19 17.72,14.82 17.27,15.27 L17.27,15.27 Z" id="Shape" fill-opacity="0.54" fill="#000000"></path>
                    </g>
                </g>
            </g>
        </g>
    </g>
</svg>