<?xml version="1.0" encoding="UTF-8" standalone="no"?>
<svg width="367px" height="220px" viewBox="0 0 367 220" version="1.1" xmlns="http://www.w3.org/2000/svg" xmlns:xlink="http://www.w3.org/1999/xlink">
    <!-- Generator: sketchtool 40.3 (33839) - http://www.bohemiancoding.com/sketch -->
    <title>6DA80394-48AC-4FA5-9D1A-DEEF5BDAC494</title>
    <desc>Created with sketchtool.</desc>
    <defs>
        <path d="M63.8313852,176.360227 C63.8313852,176.360227 115.915476,97.3366172 193.330632,176.360227 C195.788211,178.868868 198.216233,181.208923 200.614097,183.388567" id="path-1"></path>
    </defs>
    <g id="Page-1" stroke="none" stroke-width="1" fill="none" fill-rule="evenodd">
        <g id="img" transform="translate(-44.000000, -26.000000)">
            <g id="Group-2" transform="translate(44.000000, 26.000000)">
                <g id="Group" transform="translate(110.000000, 0.000000)">
                    <path d="M76.2999992,77 L7.71684194,77 C7.71684194,77.1434172 7.10542736e-15,76.9819214 0,87.4072941 C0,97.3864699 6.96622318,132.403565 49.5613462,144.529686 M107.283044,137.065181 C129.165377,123.750935 142.041275,100.323033 142.057854,78.5216414 C142.085523,42.1379013 113.627399,29.1124154 113.627399,29.1124154 C113.627399,29.1124154 102.063785,48.4343012 123.654567,65.2809452 C118.950156,65.2014523 117.917565,62.5792187 103.339189,62.8853688 C88.7608125,63.191519 85.4190508,68.7725771 84.9644688,69.0768656 C85.5545414,76.6189183 104.721257,98.8960734 128.560594,79.3032996" id="Path-2" stroke="#212121" stroke-width="8" stroke-linecap="round" stroke-linejoin="round"></path>
                    <path d="M38.9827195,121.473928 C38.9827195,121.473928 43.2172412,126.753084 56.5279843,130.114041 C59.2502962,144.317784 73.0549362,166.853323 103.35487,150.807139 C93.9243516,143.174894 90.3769639,125.818793 94.1763347,126.746387" id="Path-3" stroke="#212121" stroke-width="8" stroke-linecap="round" stroke-linejoin="round"></path>
                    <circle id="Oval-2" fill="#212121" cx="43.2999992" cy="100" r="7"></circle>
                    <path d="M57.7999992,51.5 L52.8026478,51.5 C50.8747063,51.5 49.2999992,53.0670034 49.2999992,55 C49.2999992,56.9290634 50.8681884,58.5 52.8026478,58.5 L57.7999992,58.5 L57.7999992,63.4973515 C57.7999992,65.425293 59.3670026,67 61.2999992,67 C63.2290626,67 64.7999992,65.4318108 64.7999992,63.4973515 L64.7999992,58.5 L69.7973507,58.5 C71.7252922,58.5 73.2999992,56.9329966 73.2999992,55 C73.2999992,53.0709366 71.7318101,51.5 69.7973507,51.5 L64.7999992,51.5 L64.7999992,46.5026485 C64.7999992,44.574707 63.2329959,43 61.2999992,43 C59.3709359,43 57.7999992,44.5681892 57.7999992,46.5026485 L57.7999992,51.5 Z" id="Combined-Shape" fill="#212121"></path>
                    <path d="M36.7999992,23.5 L31.8026478,23.5 C29.8747063,23.5 28.2999992,25.0670034 28.2999992,27 C28.2999992,28.9290634 29.8681884,30.5 31.8026478,30.5 L36.7999992,30.5 L36.7999992,35.4973515 C36.7999992,37.425293 38.3670026,39 40.2999992,39 C42.2290626,39 43.7999992,37.4318108 43.7999992,35.4973515 L43.7999992,30.5 L48.7973507,30.5 C50.7252922,30.5 52.2999992,28.9329966 52.2999992,27 C52.2999992,25.0709366 50.7318101,23.5 48.7973507,23.5 L43.7999992,23.5 L43.7999992,18.5026485 C43.7999992,16.574707 42.2329959,15 40.2999992,15 C38.3709359,15 36.7999992,16.5681892 36.7999992,18.5026485 L36.7999992,23.5 Z" id="Combined-Shape-Copy-2" fill="#212121"></path>
                    <path d="M72.7999992,8.5 L67.8026478,8.5 C65.8747063,8.5 64.2999992,10.0670034 64.2999992,12 C64.2999992,13.9290634 65.8681884,15.5 67.8026478,15.5 L72.7999992,15.5 L72.7999992,20.4973515 C72.7999992,22.425293 74.3670026,24 76.2999992,24 C78.2290626,24 79.7999992,22.4318108 79.7999992,20.4973515 L79.7999992,15.5 L84.7973507,15.5 C86.7252922,15.5 88.2999992,13.9329966 88.2999992,12 C88.2999992,10.0709366 86.7318101,8.5 84.7973507,8.5 L79.7999992,8.5 L79.7999992,3.50264853 C79.7999992,1.57470703 78.2329959,9.59512834e-17 76.2999992,2.1431319e-16 C74.3709359,3.32434254e-16 72.7999992,1.56818916 72.7999992,3.50264853 L72.7999992,8.5 Z" id="Combined-Shape-Copy" fill="#212121"></path>
                </g>
                <path d="M4.79839914,132.484334 C12.1279676,139.317976 22.3951299,138.533343 30.4119305,134.145982 C38.4287311,129.758621 56.2898789,115.222603 84.4059771,138.027485 C96.981864,148.227749 115.27218,154.032277 130.367238,156.724099 M261.192021,118.622043 C274.19472,122.63141 287.305722,130.461129 299.395794,143.669921" id="Path-6" stroke="#000000" stroke-width="8" stroke-linecap="round" stroke-linejoin="round"></path>
                <path d="M93.600418,128.890825 C97.0754709,126.935151 100.686619,124.608864 104.436081,121.870086 M243.146302,133.82683 C251.878197,142.66484 259.347997,150.658119 269.768155,154.430073 C328.627588,175.736382 363.070945,125.380456 363.070945,125.380456" id="Path-7" stroke="#000000" stroke-width="8" stroke-linecap="round" stroke-linejoin="round"></path>
                <g id="Path-8" stroke-linecap="round">
                    <use stroke="#FFFFFF" stroke-width="20" xlink:href="#path-1"></use>
                    <use stroke="#000000" stroke-width="8" xlink:href="#path-1"></use>
                </g>
                <path d="M313.396367,197.403511 C313.396367,197.403511 268.217839,154.935359 213.424869,195.041052 C158.631899,235.146745 127.36503,207.159122 124.427222,191.962174 C121.489414,176.765227 137.304096,158.337457 154.935828,174.486285 C167.847374,189.818556 148.448365,199.531205 140.325219,190.224438" id="Path-9" stroke="#000000" stroke-width="8" stroke-linecap="round" stroke-linejoin="round"></path>
            </g>
        </g>
    </g>
</svg>