<?xml version="1.0" encoding="UTF-8" standalone="no"?>
<svg width="16px" height="16px" viewBox="0 0 16 16" version="1.1" xmlns="http://www.w3.org/2000/svg" xmlns:xlink="http://www.w3.org/1999/xlink">
    <!-- Generator: sketchtool 41.2 (35397) - http://www.bohemiancoding.com/sketch -->
    <title>F43A9FE0-F91B-4BBB-9119-BC546240363B</title>
    <desc>Created with sketchtool.</desc>
    <defs></defs>
    <g id="味噌的事" stroke="none" stroke-width="1" fill="none" fill-rule="evenodd">
        <g id="味噌圈子-个人中心" transform="translate(-112.000000, -129.000000)">
            <g id="Group-2" transform="translate(0.000000, 72.000000)">
                <g id="Group-3" transform="translate(20.000000, 20.000000)">
                    <g id="Group-4" transform="translate(88.000000, 7.000000)">
                        <g id="Dynamic-group" transform="translate(0.000000, 27.000000)">
                            <g id="2:6:2:4" transform="translate(4.000000, 2.000000)">
                                <g id="Group" transform="translate(0.000000, 1.000000)">
                                    <rect id="Rectangle-2" fill-opacity="0" fill="#D8D8D8" x="0" y="0" width="16" height="16"></rect>
                                    <path d="M4.60850487,3.72250744 C4.60850487,2.99795656 5.19811357,2.40852023 5.92277526,2.40852023 C6.64743696,2.40852023 7.23699641,2.99795656 7.23699641,3.72250744 L7.6455782,3.72250744 C7.6455782,2.77267944 6.87271407,2 5.92278757,2 C4.97283645,2 4.19999695,2.77272869 4.19999695,3.72250744 C4.19999695,3.98325613 4.257372,4.23340398 4.37047227,4.46610537 L4.73786961,4.28746703 C4.65202865,4.11095871 4.60850487,3.92086999 4.60850487,3.72250744 Z M13.7527034,7.36535627 C13.6664354,7.36535627 13.6264544,7.34756721 13.6122618,7.33898718 C13.5506211,6.96522356 13.3934388,6.41447256 12.9959188,5.87830119 C12.628574,5.38269144 12.1378994,5.00907296 11.5355392,4.76567099 C11.5497317,4.15635968 11.6964632,3.66208853 12.0126987,2.8083108 C12.0471962,2.71515615 12.0272783,2.61064749 11.9610088,2.53668504 C11.8946587,2.46280321 11.7928434,2.43164416 11.6966083,2.45586823 C10.6560859,2.71718827 9.92363822,3.27280988 9.46404201,4.15127938 C8.92129046,4.03472319 8.35657272,3.97572741 7.7820815,3.97572741 C6.17877667,3.97572741 4.83037299,4.41874415 3.65977917,5.33009841 C3.15026719,5.72694103 2.75932736,6.24206553 2.49776539,6.86102133 C2.47041251,6.92572638 2.44465629,6.99152814 2.42028706,7.05816854 C2.32264886,7.02484833 2.1628377,6.95993362 2.0067037,6.85145749 C1.70414467,6.64100477 1.55068788,6.36234726 1.55068788,6.02316181 C1.55068788,5.67681557 1.71893392,5.3892716 1.98968878,5.27257027 C2.12542102,5.21413896 2.18802946,5.05674697 2.12953363,4.9209986 C2.07110233,4.78526636 1.9136297,4.72265793 1.77796197,4.78115375 C1.31484989,4.98068789 1.01558094,5.46816919 1.01558094,6.02316181 C1.01558094,6.54754371 1.25853134,6.98988308 1.71812753,7.30239302 C1.927919,7.4450925 2.13806528,7.52845751 2.26723347,7.57119639 C2.1565962,8.03990485 2.11206713,8.54686864 2.13471068,9.0863301 C2.19335164,10.4881493 3.201828,11.4973837 3.79896277,11.9750592 C3.90834206,12.0596339 3.92919541,12.0756972 3.89490754,12.1816251 C3.80062395,12.4719431 3.62782983,12.8864296 3.62602352,12.8905906 C3.547513,13.0961082 3.55386738,13.3116573 3.64074828,13.5053048 C3.72770981,13.699178 3.88474697,13.8473287 4.08310377,13.9226137 L5.06737218,14.2948129 C5.15776894,14.3292621 5.25242347,14.346664 5.34872305,14.346664 C5.67647384,14.346664 5.97493639,14.1409207 6.09096036,13.8355231 C6.09229897,13.8321524 6.22349928,13.4902897 6.32897562,13.2088743 C6.34707111,13.1612165 6.3607153,13.132525 6.36984367,13.1157197 C6.41443727,13.1196065 6.48580314,13.1345409 6.56655543,13.1514268 C6.81250561,13.2029715 7.18409196,13.2807563 7.78212989,13.2807563 C8.32210745,13.2807563 8.68846837,13.2415333 8.93090267,13.2156158 C9.04850717,13.2030522 9.14135539,13.1931174 9.2032058,13.1931174 C9.23459066,13.2060358 9.24304166,13.2259699 9.25371832,13.2573547 C9.34621171,13.5327383 9.45759086,13.7997999 9.47417031,13.8393293 C9.59109744,14.1430173 9.88797946,14.346664 10.2148271,14.346664 C10.3111267,14.346664 10.4058457,14.3292621 10.4963392,14.2949742 L11.4797206,13.9226298 C11.6785129,13.8474094 11.8360823,13.6990329 11.9231728,13.5048693 C12.0100537,13.3112219 12.0162468,13.0957695 11.941107,12.899219 L11.7833279,12.4815231 C11.7780057,12.4675402 11.7715868,12.4539444 11.7640551,12.4410905 C11.7669581,12.4065929 11.7872793,12.3797561 11.8443558,12.3487584 C12.5599822,11.9594636 13.13128,11.3513457 13.4968185,10.5893195 C13.566378,10.4432654 13.6064235,10.3880597 13.7527679,10.3880597 L14.2507001,10.3880597 C14.672428,10.3880597 15.0155809,10.0452132 15.0155809,9.62387234 L15.0155809,8.1308177 C15.0155003,7.70871884 14.6723635,7.36535627 14.2505711,7.36535627 L13.7527034,7.36535627 Z M14.2506356,9.85282377 L13.7527034,9.85282377 C13.2546261,9.85282377 13.0857188,10.2076855 13.0139175,10.3584489 C12.6931339,11.0271592 12.2135875,11.5386066 11.5886483,11.8785178 C11.3645192,12.0003155 11.27988,12.160546 11.24835,12.2735864 C11.195757,12.461831 11.2561882,12.6200777 11.2880891,12.6849925 L11.4407879,13.0892378 C11.4652378,13.1530397 11.4630766,13.2227444 11.4348206,13.2856592 C11.4063549,13.3490741 11.355036,13.3975545 11.2901696,13.4220527 L10.3065786,13.7944777 C10.2769194,13.8057673 10.2459862,13.8114443 10.2147626,13.8114443 C10.107496,13.8114443 10.0103578,13.7446587 9.97292502,13.6452142 C9.96779636,13.6326022 9.85265942,13.359783 9.7606176,13.085738 C9.68844534,12.8741725 9.56577668,12.6578815 9.2032058,12.6578815 C9.11274453,12.6578815 9.00731657,12.669171 8.87398739,12.6834281 C8.62900489,12.709652 8.29349659,12.7455043 7.78212989,12.7455043 C7.23945897,12.7455043 6.90049932,12.6745255 6.67616049,12.627545 C6.54773419,12.6006598 6.44619305,12.5794516 6.34974833,12.5794516 C5.99482206,12.5794516 5.88245912,12.8766401 5.82814042,13.0201621 C5.72303503,13.300384 5.59257661,13.6403113 5.59093155,13.6445691 C5.55306329,13.7444652 5.45563476,13.8114765 5.34865853,13.8114765 C5.31758011,13.8114765 5.28695325,13.8057995 5.2570683,13.7944294 L4.27273538,13.4221495 C4.20840128,13.3977964 4.15737266,13.3494773 4.12898759,13.2861915 C4.10111861,13.2241152 4.09858654,13.1552976 4.12174618,13.0921731 C4.14251888,13.0421928 4.30716841,12.6445276 4.40391957,12.3465973 C4.55423142,11.8822111 4.24822101,11.645986 4.1476798,11.5683787 C3.60723453,11.1362644 2.71918506,10.2540371 2.66936604,9.06392853 C2.60967676,7.63753042 3.07817556,6.46140474 3.98862665,5.75227798 C5.06158227,4.91688604 6.30249362,4.51085053 7.782146,4.51085053 C8.38855429,4.51085053 8.98254412,4.58107131 9.54763279,4.71951305 C9.67276902,4.75015602 9.80185658,4.68738631 9.85504631,4.57010436 C10.1678627,3.88031492 10.6416514,3.41600938 11.3261187,3.13704542 C11.1153756,3.75427554 10.9883686,4.28589885 11.000029,4.95528653 C11.0019644,5.06735917 11.0735238,5.16627146 11.1793227,5.20325269 C12.6620394,5.72084475 13.0071921,6.94117694 13.0869929,7.44293142 C13.1214259,7.65398087 13.3164281,7.90049551 13.7527034,7.90049551 L14.2506356,7.90049551 C14.3772878,7.90049551 14.4802966,8.00382684 14.4802966,8.13073713 L14.4802966,9.62377561 C14.4802966,9.75010529 14.3772878,9.85282377 14.2506356,9.85282377 Z M10.9424364,7.9323803 C10.9424364,8.25572817 11.2047402,8.51809652 11.5287332,8.51809652 C11.8517747,8.51809652 12.113256,8.25572817 12.113256,7.9323803 C12.113256,7.60935498 11.8517747,7.34727692 11.5287332,7.34727692 C11.2047402,7.34727692 10.9424364,7.60935498 10.9424364,7.9323803 Z" id="Shape" stroke="#FF5856" stroke-width="0.4" fill="#FF5856"></path>
                                </g>
                            </g>
                        </g>
                    </g>
                </g>
            </g>
        </g>
    </g>
</svg>