<?xml version="1.0" encoding="UTF-8" standalone="no"?>
<svg width="40px" height="40px" viewBox="0 0 40 40" version="1.1" xmlns="http://www.w3.org/2000/svg" xmlns:xlink="http://www.w3.org/1999/xlink">
    <!-- Generator: sketchtool 41 (35326) - http://www.bohemiancoding.com/sketch -->
    <title>B4435D85-B959-4293-9E5D-92F969126AC2</title>
    <desc>Created with sketchtool.</desc>
    <defs></defs>
    <g id="味噌的事" stroke="none" stroke-width="1" fill="none" fill-rule="evenodd">
        <g id="味噌的事-通知" transform="translate(-16.000000, -136.000000)">
            <g id="Group-13" transform="translate(16.000000, 136.000000)">
                <g id="Group-12">
                    <g id="Group-2-Copy-5">
                        <g id="Group-9">
                            <circle id="Oval" fill-opacity="0.87" fill="#000000" cx="20" cy="20" r="20"></circle>
                            <g id="good" transform="translate(10.000000, 10.000000)" stroke="#FFFFFF" stroke-width="0.3" fill="#FFFFFF">
                                <path d="M14.6425321,19.5 L8.15273628,19.5 C7.88847562,19.5 7.67339499,19.2881785 7.67339499,19.027978 C7.67339499,18.7677775 7.88847562,18.5566098 8.15273628,18.5566098 L14.6425321,18.5566098 C16.0215399,18.5566098 16.6877653,17.8106581 17.0025174,17.1850002 C17.018255,17.1470815 17.0235009,17.1124317 17.0313697,17.0712442 C17.0910414,16.7724713 17.1920244,16.2710296 17.8549711,15.479314 C18.333001,14.907919 18.2510342,14.3012204 18.1546414,13.5990713 C18.1244777,13.3761357 18.0943139,13.1545077 18.081855,12.9348409 C18.0267733,11.9979884 18.2733292,11.5933047 18.6156221,11.03237 C18.6779168,10.9316894 18.7448017,10.821856 18.8162766,10.6989473 C19.1303731,10.1589332 19.1126682,9.48881886 18.7690638,8.90696349 C18.3493943,8.19566165 17.559891,7.77005733 16.6582572,7.77005733 C15.0608901,7.77005733 13.2195901,7.82432025 13.2018853,7.82432025 C13.042542,7.83020418 12.9172969,7.76874979 12.823527,7.66087773 C12.7284456,7.55300567 12.6897573,7.40852248 12.7153309,7.26861568 C12.7218882,7.23592718 13.323196,3.98995876 13.323196,2.56343246 C13.323196,1.10029503 12.2097603,0.942736447 11.7323862,0.942736447 C10.9776368,0.942736447 10.3638701,1.74360479 10.3638701,2.72883629 C10.3638701,3.95334764 10.3638701,4.36653032 9.71469379,5.26023402 C8.81896165,6.49324438 7.12782461,8.56242666 5.85373415,8.56242666 L5.04652605,8.56242666 L5.04652605,19.0273242 C5.04652605,19.2881785 4.83144542,19.4993462 4.56718476,19.4993462 L1.82359524,19.4993462 C0.818355576,19.4993462 0,18.6945553 0,17.7054011 L0,9.41298153 C0,8.42448117 0.817699842,7.61969021 1.82359524,7.61969021 L5.85438989,7.61969021 C6.42487815,7.61969021 7.69241127,6.42459852 8.93437077,4.71302846 C9.40518752,4.06514232 9.40518752,3.91281389 9.40518752,2.72949006 C9.40518752,1.19836055 10.4268205,0 11.7317305,0 C12.9081166,0 14.2818786,0.672075636 14.2818786,2.56408623 C14.2818786,3.71079894 13.9376184,5.84470446 13.7605703,6.86785463 C14.4405661,6.85151038 15.6018704,6.82797465 16.6582572,6.82797465 C17.9054626,6.82797465 19.0057837,7.42813558 19.5985669,8.43428773 C20.115285,9.31033963 20.1343012,10.332836 19.6490584,11.1677004 C19.573649,11.2971469 19.5034855,11.4122104 19.4385679,11.5187749 C19.120537,12.0391759 19.0011935,12.2339994 19.0392261,12.880578 C19.0510293,13.0760553 19.0792258,13.2748014 19.1054552,13.4735475 C19.2097168,14.2378047 19.3395521,15.1890401 18.5952944,16.0781674 C18.0864451,16.6868274 18.0175931,17.0280953 17.9716917,17.253646 C17.9500525,17.3615181 17.9271018,17.4733128 17.8707087,17.5857612 C17.2451389,18.8259631 16.1021951,19.5 14.6425321,19.5 L14.6425321,19.5 Z M1.82359524,8.56308043 C1.34753262,8.56308043 0.959338307,8.94422838 0.959338307,9.41298153 L0.959338307,17.7067087 C0.959338307,18.1761156 1.34753262,18.5572636 1.82359524,18.5572636 L4.08784348,18.5572636 L4.08784348,8.56308043 L1.82359524,8.56308043 L1.82359524,8.56308043 Z" id="Shape"></path>
                            </g>
                        </g>
                    </g>
                </g>
            </g>
        </g>
    </g>
</svg>