<?xml version="1.0" encoding="UTF-8" standalone="no"?>
<svg width="40px" height="40px" viewBox="0 0 40 40" version="1.1" xmlns="http://www.w3.org/2000/svg" xmlns:xlink="http://www.w3.org/1999/xlink">
    <!-- Generator: sketchtool 41 (35326) - http://www.bohemiancoding.com/sketch -->
    <title>D24B8E13-796B-45EA-B055-65A5E3599628</title>
    <desc>Created with sketchtool.</desc>
    <defs></defs>
    <g id="味噌的事" stroke="none" stroke-width="1" fill="none" fill-rule="evenodd">
        <g id="味噌的事-通知" transform="translate(-16.000000, -316.000000)">
            <g id="Group-13" transform="translate(16.000000, 136.000000)">
                <g id="Group-5" transform="translate(0.000000, 179.000000)">
                    <g id="Group-2">
                        <g id="Group-10" transform="translate(0.000000, 1.000000)">
                            <circle id="Oval" fill="#F5F5F5" cx="20" cy="20" r="20"></circle>
                            <g id="favorite-(1)" transform="translate(10.000000, 10.000000)" stroke="#000000" stroke-width="0.300000012" fill="#000000">
                                <path d="M9.2160875,1.40816023 C9.48583896,0.819032734 9.62978258,0.82040666 9.88453246,1.41295811 L12.1044029,6.57640512 C12.2102261,6.82255104 13.1186484,6.44652379 13.0128253,6.20037783 L10.7929547,1.03693084 C10.2029882,-0.335338945 8.93904387,-0.347403184 8.31674379,1.01167793 L5.98835363,6.09679879 C5.87677396,6.34048475 5.9876457,6.62678688 6.23599262,6.73627246 C6.48433949,6.84575801 6.77611768,6.73696709 6.88769729,6.49328107 L9.2160875,1.40816023 Z M18.48299,7.74381438 C19.1373579,7.81349801 19.1805073,7.94825184 18.6849005,8.36909475 L14.3662223,12.0362871 C14.1603472,12.2111053 14.1378812,12.5165859 14.3160431,12.7185972 C14.4329321,12.8511333 14.6098457,12.414907 14.7739868,12.3877401 C14.938128,12.3605731 14.9405996,12.8279576 15.0114035,12.7678346 L19.3300818,9.10064229 C20.4778406,8.12602646 20.0989536,6.94277633 18.5893669,6.78202051 L12.9411162,6.18053842 C12.6704442,6.15171459 12.4272079,6.34365313 12.3978328,6.60924521 C12.3684577,6.87483725 12.5640674,7.1135085 12.8347393,7.14233232 L18.48299,7.74381438 Z M15.4158545,18.4772378 C15.5505246,19.1094322 15.4332488,19.1913407 14.8721971,18.8588845 L9.98323662,15.961887 C9.7501757,15.8237847 9.44714713,15.8972179 9.30640334,16.1259048 C9.23459288,16.2425857 9.63155386,16.2909296 9.66436768,16.4130859 C9.6971815,16.5352423 9.35941,16.7223959 9.4735583,16.7900355 L14.3625188,19.687033 C15.6618393,20.4569571 16.6916185,19.7377325 16.3809427,18.2792988 L15.218522,12.8224416 C15.1628171,12.5609415 14.9016171,12.393264 14.6351154,12.4479233 C14.3686136,12.5025827 14.197729,12.7588805 14.2534338,13.0203806 L15.4158545,18.4772378 Z M4.54636338,18.8157266 C3.97522621,19.1367606 3.85959637,19.052629 4.0084541,18.4263168 L5.30558863,12.9686816 C5.36742412,12.7085115 5.20260816,12.4484151 4.93746184,12.3877401 C4.83257224,12.3637376 4.94797884,12.7845104 4.85568984,12.8224416 C4.76340084,12.8603729 4.38278274,12.5917089 4.34540883,12.7489579 L3.0482743,18.2065932 C2.70353977,19.6570483 3.71886535,20.3957932 5.03644383,19.6551875 L9.96627904,16.8841463 C10.1376597,16.7878139 9.52529915,16.6122414 9.30640334,16.4130859 C9.08750753,16.2139305 9.54106244,16.0082257 9.47619857,16.0446854 L4.54636338,18.8157266 Z M2.53894729,9.790774 C1.60356363,8.95871629 1.60356363,8.95871629 0.824077246,8.26533492 C0.622365313,8.08590482 0.310606563,8.10089896 0.12774459,8.29882521 C-0.0551173828,8.49675146 -0.0398364844,8.8026592 0.16187543,8.98208926 C0.941361816,9.67547066 0.941361816,9.67547066 1.87674547,10.5075283 L4.37110188,12.7263488 C4.57281379,12.9057789 4.88457254,12.8907848 5.06743455,12.6928585 C5.2502965,12.4949323 5.23501563,12.1890246 5.03330367,12.0095945 C4.40971459,11.4548893 4.40971459,11.4548893 2.53894729,9.790774 Z M3.52334887,7.46607184 C3.71810244,7.44663342 3.91916834,7.42598232 4.12545533,7.40427441 C4.62253463,7.351966 5.12741816,7.29594521 5.61397992,7.23992508 C5.78428287,7.22031732 5.94015779,7.20210709 6.07832979,7.18575912 C6.1613517,7.17593633 6.21993846,7.16892713 6.25132176,7.16513559 C6.52154229,7.13248768 6.71362676,6.89107541 6.68035437,6.62592629 C6.66390876,6.49487062 6.34895251,6.70207683 6.25132176,6.62592629 C6.153691,6.54977575 6.26748999,6.18843465 6.13083176,6.20494563 C6.10058621,6.20860008 6.04247775,6.21555209 5.96030059,6.22527496 C5.82314074,6.24150313 5.66830488,6.25959199 5.49908051,6.27907559 C5.0155642,6.33474504 4.5138532,6.39041383 4.02032117,6.442349 C3.81576283,6.46387496 3.61647471,6.48434346 3.42357391,6.50359695 C3.02237035,6.54364125 2.65477062,6.57783996 2.32827461,6.60515051 C2.05699725,6.62784213 1.85583055,6.86202383 1.87895619,7.12820992 C1.90208186,7.39439604 2.14074266,7.59178729 2.41202002,7.56909566 C2.74435691,7.54129654 3.11715525,7.5066142 3.52334887,7.46607184 Z" id="Shape"></path>
                            </g>
                        </g>
                    </g>
                </g>
            </g>
        </g>
    </g>
</svg>