<?xml version="1.0" encoding="UTF-8" standalone="no"?>
<svg width="24px" height="24px" viewBox="0 0 24 24" version="1.1" xmlns="http://www.w3.org/2000/svg" xmlns:xlink="http://www.w3.org/1999/xlink">
    <!-- Generator: sketchtool 41.2 (35397) - http://www.bohemiancoding.com/sketch -->
    <title>A636D222-C0D6-4214-A1FA-3F1F525997D2</title>
    <desc>Created with sketchtool.</desc>
    <defs></defs>
    <g id="味噌的事" stroke="none" stroke-width="1" fill="none" fill-rule="evenodd">
        <g id="味噌圈子-个人中心" transform="translate(-16.000000, -248.000000)">
            <g id="Help-Section" transform="translate(0.000000, 188.000000)">
                <g id="help" transform="translate(16.000000, 48.000000)">
                    <g id="ic_security" transform="translate(0.000000, 12.000000)">
                        <polygon id="Shape" points="0 0 24 0 24 24 0 24"></polygon>
                        <rect id="Rectangle-3" fill="#FF5856" x="3.5" y="2" width="17" height="20" rx="2"></rect>
                        <path d="M15,10 L14.5,10 L14.5,9 C14.5,7.62 13.38,6.5 12,6.5 C10.62,6.5 9.5,7.62 9.5,9 L9.5,10 L9,10 C8.45,10 8,10.45 8,11 L8,16 C8,16.55 8.45,17 9,17 L15,17 C15.55,17 16,16.55 16,16 L16,11 C16,10.45 15.55,10 15,10 L15,10 Z M12,14.5 C11.45,14.5 11,14.05 11,13.5 C11,12.95 11.45,12.5 12,12.5 C12.55,12.5 13,12.95 13,13.5 C13,14.05 12.55,14.5 12,14.5 L12,14.5 Z M13.55,10 L10.45,10 L10.45,9 C10.45,8.145 11.145,7.45 12,7.45 C12.855,7.45 13.55,8.145 13.55,9 L13.55,10 L13.55,10 Z" id="Shape" fill="#FFFFFF"></path>
                    </g>
                </g>
            </g>
        </g>
    </g>
</svg>