<?xml version="1.0" encoding="UTF-8" standalone="no"?>
<svg width="24px" height="24px" viewBox="0 0 24 24" version="1.1" xmlns="http://www.w3.org/2000/svg" xmlns:xlink="http://www.w3.org/1999/xlink">
    <!-- Generator: sketchtool 41.2 (35397) - http://www.bohemiancoding.com/sketch -->
    <title>DE04A7B3-1D43-4EE8-AFCF-2284AC13AAB2</title>
    <desc>Created with sketchtool.</desc>
    <defs>
        <rect id="path-1" x="0" y="0" width="22" height="22" rx="3"></rect>
        <mask id="mask-2" maskContentUnits="userSpaceOnUse" maskUnits="objectBoundingBox" x="0" y="0" width="22" height="22" fill="white">
            <use xlink:href="#path-1"></use>
        </mask>
    </defs>
    <g id="味噌的事" stroke="none" stroke-width="1" fill="none" fill-rule="evenodd">
        <g id="文章-专题未订阅" transform="translate(-33.000000, -602.000000)">
            <g id="bottom" transform="translate(0.000000, 588.000000)">
                <g id="Group-19">
                    <rect id="Rectangle-17-Copy-3" fill-opacity="0" fill="#D8D8D8" x="0" y="0" width="90" height="52"></rect>
                    <g id="Group-5" transform="translate(34.000000, 15.000000)">
                        <use id="Rectangle-8" stroke="#000000" mask="url(#mask-2)" stroke-width="3.2" fill-opacity="0" fill="#D8D8D8" xlink:href="#path-1"></use>
                        <path d="M6.5,9.505 L6.065,9.109 C4.52,7.708 3.5,6.784 3.5,5.65 C3.5,4.726 4.226,4 5.15,4 C5.672,4 6.173,4.243 6.5,4.627 C6.827,4.243 7.328,4 7.85,4 C8.774,4 9.5,4.726 9.5,5.65 C9.5,6.784 8.48,7.708 6.935,9.112 L6.5,9.505 L6.5,9.505 Z" id="Shape" fill="#000000"></path>
                        <path d="M13,9 L18,9" id="Path-2-Copy" stroke="#000000" stroke-width="1.6" stroke-linecap="round" stroke-linejoin="round"></path>
                        <path d="M13,13 L18,13" id="Path-2-Copy-4" stroke="#000000" stroke-width="1.6" stroke-linecap="round" stroke-linejoin="round"></path>
                        <path d="M13,17 L18,17" id="Path-2-Copy-5" stroke="#000000" stroke-width="1.6" stroke-linecap="round" stroke-linejoin="round"></path>
                        <path d="M13,5 L18,5" id="Path-2-Copy-7" stroke="#000000" stroke-width="1.6" stroke-linecap="round" stroke-linejoin="round"></path>
                        <path d="M4,13 L9,13" id="Path-2-Copy-4" stroke="#000000" stroke-width="1.6" stroke-linecap="round" stroke-linejoin="round"></path>
                        <path d="M4,17 L9,17" id="Path-2-Copy-5" stroke="#000000" stroke-width="1.6" stroke-linecap="round" stroke-linejoin="round"></path>
                    </g>
                </g>
            </g>
        </g>
    </g>
</svg>