<?xml version="1.0" encoding="UTF-8" standalone="no"?>
<svg width="24px" height="24px" viewBox="0 0 24 24" version="1.1" xmlns="http://www.w3.org/2000/svg" xmlns:xlink="http://www.w3.org/1999/xlink">
    <!-- Generator: sketchtool 41.2 (35397) - http://www.bohemiancoding.com/sketch -->
    <title>20B626F3-FFCE-489C-98F7-2CC5FD364497</title>
    <desc>Created with sketchtool.</desc>
    <defs>
        <rect id="path-1" x="0" y="0" width="360" height="640"></rect>
        <rect id="path-3" x="0" y="2" width="360" height="50"></rect>
        <filter x="-50%" y="-50%" width="200%" height="200%" filterUnits="objectBoundingBox" id="filter-4">
            <feOffset dx="0" dy="-1" in="SourceAlpha" result="shadowOffsetOuter1"></feOffset>
            <feComposite in="shadowOffsetOuter1" in2="SourceAlpha" operator="out" result="shadowOffsetOuter1"></feComposite>
            <feColorMatrix values="0 0 0 0 0   0 0 0 0 0   0 0 0 0 0  0 0 0 0.12 0" type="matrix" in="shadowOffsetOuter1"></feColorMatrix>
        </filter>
    </defs>
    <g id="味噌的事" stroke="none" stroke-width="1" fill="none" fill-rule="evenodd">
        <g id="文章-专题未订阅" transform="translate(-303.000000, -603.000000)">
            <g id="Group-3">
                <mask id="mask-2" fill="white">
                    <use xlink:href="#path-1"></use>
                </mask>
                <use id="bg" fill="#FFFFFF" xlink:href="#path-1"></use>
            </g>
            <g id="bottom" transform="translate(0.000000, 588.000000)">
                <g id="Rectangle-5">
                    <use fill="black" fill-opacity="1" filter="url(#filter-4)" xlink:href="#path-3"></use>
                    <use fill-opacity="0.9" fill="#FFFFFF" fill-rule="evenodd" xlink:href="#path-3"></use>
                </g>
                <g id="Group-20" transform="translate(270.000000, 2.000000)" fill-opacity="0">
                    <rect id="Rectangle-17" fill="#D8D8D8" x="0" y="0" width="90" height="50"></rect>
                    <g id="Group-3" transform="translate(33.000000, 13.000000)">
                        <rect id="Rectangle-57" fill="#D8D8D8" x="0" y="0" width="24" height="24"></rect>
                        <path d="M21.7448,20.4684004 C21.6032667,20.0446747 21.4052667,19.7079961 21.1508,19.4583648 C20.9095333,19.2152081 20.4284667,18.9475918 19.7061333,18.6562354 C18.9845333,18.3641596 16.6676667,17.1419014 16.2364667,16.9268012 C15.6982,16.6563073 15.2809333,16.2584799 14.9832,15.7340383 C14.6862,15.2103162 14.5373333,14.6664508 14.5373333,14.1038812 C14.5373333,13.7218805 14.7712667,13.2708176 15.2384,12.749973 C15.4862667,12.4722852 15.7194667,12.0413654 15.9387333,11.4586526 C16.5899333,11.2011079 16.9155333,10.6629977 16.9155333,9.84360275 C16.9155333,9.24002734 16.8128667,8.80551059 16.6075333,8.54149131 C16.6647333,8.16021006 16.7285333,7.57318082 16.7989333,6.78112298 C16.8488,6.19121614 16.7439333,5.6027481 16.4858,5.01571886 C16.2276667,4.42940901 15.8749333,3.91719722 15.4290667,3.47980288 C14.9832,3.04168915 14.4574,2.68630625 13.8524,2.41149599 C13.2474,2.13740513 12.6226,2 12,2 C11.3766667,2 10.7526,2.13740513 10.1476,2.41149599 C9.54186667,2.68630625 9.0168,3.04168915 8.57093333,3.47980288 C8.12433333,3.91719722 7.77233333,4.42940901 7.5142,5.01571886 C7.25606667,5.6027481 7.1512,6.19121614 7.20106667,6.78112298 C7.27146667,7.57318082 7.33526667,8.16021006 7.39173333,8.54149131 C7.1864,8.80551059 7.08446667,9.24002734 7.08446667,9.84360275 C7.08446667,10.6629977 7.41006667,11.2011079 8.06126667,11.4586526 C8.28053333,12.0413654 8.51373333,12.4722852 8.7616,12.749973 C9.22873333,13.2708176 9.46266667,13.7218805 9.46266667,14.1038812 C9.46266667,14.6664508 9.3138,15.2103162 9.0168,15.7340383 C8.71906667,16.2584799 8.3018,16.6563073 7.76353333,16.9268012 C7.3316,17.1419014 5.01546667,18.3641596 4.29313333,18.6562354 C3.57153333,18.9475918 3.08973333,19.2152081 2.8492,19.4583648 C2.59473333,19.7079961 2.396,20.0446747 2.25446667,20.4684004 C2.11293333,20.8921262 2.13273172,21.0113892 2.13273172,21.0113892 C2.05942602,21.5573838 2.45530558,22 2.99180311,22 L21.0081969,22 C21.5559546,22 21.9478483,21.5573884 21.86703,21.0113892 C21.86703,21.0113892 21.8870667,20.8921262 21.7448,20.4684004 Z" id="Me" stroke="#000000" stroke-width="1.6" fill="#5E6066"></path>
                    </g>
                </g>
            </g>
        </g>
    </g>
</svg>