<?xml version="1.0" encoding="UTF-8" standalone="no"?>
<svg width="24px" height="24px" viewBox="0 0 24 24" version="1.1" xmlns="http://www.w3.org/2000/svg" xmlns:xlink="http://www.w3.org/1999/xlink">
    <!-- Generator: sketchtool 41.2 (35397) - http://www.bohemiancoding.com/sketch -->
    <title>C7C262B3-CBA2-47FB-A7D1-84E8CADF1523</title>
    <desc>Created with sketchtool.</desc>
    <defs></defs>
    <g id="味噌的事" stroke="none" stroke-width="1" fill="none" fill-rule="evenodd">
        <g id="文章-专题未订阅" transform="translate(-213.000000, -602.000000)">
            <g id="bottom" transform="translate(0.000000, 588.000000)">
                <g id="Group-18" transform="translate(180.000000, 2.000000)">
                    <g id="Group-3" transform="translate(33.000000, 12.000000)">
                        <rect id="Rectangle-57" fill-opacity="0" fill="#e78170" x="0" y="0" width="24" height="24"></rect>
                        <g id="Group" stroke="#e78170" fill="#e78170">
                            <path d="M23.7772797,12.7976213 C23.7436796,12.6213721 23.6907718,12.44425 23.6223177,12.284643 L23.618055,12.2745338 L23.6133465,12.2649315 C23.447463,11.8952278 23.2180567,11.544419 22.9307278,11.22222 C22.6301928,10.8844208 22.3413036,10.6429265 22.0473159,10.4828689 C21.893329,10.4018546 21.7386456,10.3383553 21.560364,10.2821775 C21.3507389,10.2179179 21.1419776,10.1824935 20.927254,10.1728348 C20.8908399,10.1715114 20.8664895,10.1710608 20.842167,10.1710608 C20.6208961,10.1710608 20.3973406,10.2057813 20.1773235,10.2747434 C19.919332,10.3550256 19.6709804,10.4908943 19.4404597,10.6775062 L19.4265572,10.6887981 L19.4130168,10.7004842 C19.2996231,10.7978028 19.1686771,10.919451 19.0231042,11.0617119 C18.8920746,11.1910477 18.781077,11.2980249 18.6878546,11.3871773 L18.5916789,11.479906 L18.5883913,11.4766395 L18.5182377,11.5500508 L17.7762754,12.2618339 L17.8057243,12.2923586 L17.74613,12.354985 L15.1485514,15.0626725 L14.1696605,16.0831662 L13.287976,17.0028777 C13.0174471,17.2842738 12.7909106,17.5216287 12.6101772,17.7159843 L12.3193378,18.024526 L12.2784938,18.0679758 C12.1101586,18.2430423 11.9739469,18.4139412 11.8688,18.5833195 C11.782292,18.7208778 11.7013006,18.8760356 11.6308405,19.0412745 C11.5631108,19.1795367 11.4974985,19.3529418 11.4178443,19.6018702 C11.3496966,19.8135438 11.2792365,20.0477731 11.2065197,20.3027839 C11.1373691,20.5451793 11.0719239,20.7794085 11.0097385,21.0069639 C10.9300286,21.3042419 10.8847826,21.5120858 10.8611844,21.6862512 C10.778772,22.2433833 10.882498,22.7244853 11.1715265,23.0997927 C11.3447095,23.3199423 11.7229484,23.6710608 12.4017502,23.6710608 C12.4861128,23.6710608 12.5746546,23.6658513 12.6655646,23.6554887 L12.6898871,23.6526728 L12.7142096,23.6485052 C12.8589188,23.6252175 13.0429119,23.582359 13.3102925,23.5098206 C13.5376927,23.4478137 13.7796085,23.3736421 14.0501374,23.283307 C14.3038383,23.1973929 14.5471749,23.1099019 14.77842,23.0215098 C15.0290283,22.9240222 15.2196802,22.8413746 15.366674,22.7675127 C15.5596382,22.6768679 15.7452194,22.5602883 15.9182631,22.420421 C16.0339692,22.328875 16.1402584,22.2382583 16.2361554,22.148768 C16.3174255,22.0789047 16.4156071,21.9798121 16.6085714,21.7801344 C16.783036,21.5972396 16.9976482,21.3713174 17.2564755,21.0983409 C17.4908688,20.8486804 17.7616484,20.568467 18.1113021,20.2122798 L18.118546,20.2050147 L18.125539,20.1972709 L19.0924777,19.1780443 L21.6860721,16.4742992 L22.5243773,15.6007126 L22.5215355,15.5978967 L22.5311753,15.5891673 C22.6046165,15.5222607 22.6855523,15.4440623 22.7706672,15.3561207 C22.8220705,15.3024209 22.882835,15.2411744 22.9524035,15.1721559 C23.0363483,15.088044 23.1291249,14.9944706 23.2319872,14.8873244 L23.2497903,14.8691053 L23.266451,14.8502668 C23.4571307,14.6341158 23.601422,14.3948742 23.6948952,14.1389342 C23.7865574,13.8917798 23.8338094,13.6313061 23.8338094,13.36934 C23.8337815,13.1738016 23.8148361,12.9812764 23.7772797,12.7976213 L23.7772797,12.7976213 Z M18.2477088,18.3072455 L17.2807702,19.3263594 C16.959451,19.6537397 16.6693081,19.9534111 16.4113166,20.2279927 C16.1539102,20.4997582 15.9402732,20.724188 15.7712414,20.9011975 C15.6014852,21.0771088 15.5008518,21.1787357 15.4687004,21.2021643 C15.3887398,21.2787295 15.295796,21.3580824 15.1909277,21.4411525 C15.0866446,21.5254333 14.9779037,21.5932128 14.8649279,21.644857 C14.7516457,21.702837 14.5871552,21.7739111 14.3698406,21.8586143 C14.1521081,21.9415154 13.9247078,22.0234027 13.6872219,22.1039665 C13.4497082,22.1834602 13.2238681,22.2531827 13.0102868,22.3113036 C12.796817,22.3693399 12.6380101,22.4076084 12.5326961,22.424673 C12.4854441,22.4303049 12.4417583,22.4326984 12.4015272,22.4326984 C12.256205,22.4326984 12.154903,22.3969361 12.0980111,22.3245385 C12.0257122,22.2306271 12.0056524,22.0762014 12.0376366,21.8586144 C12.0536009,21.7408239 12.0921324,21.5706853 12.1520611,21.3472693 C12.2131043,21.1243038 12.2770171,20.8949743 12.3454712,20.6558454 C12.4139253,20.4155338 12.4800669,20.1950745 12.5446763,19.9942422 C12.6093134,19.7926215 12.6614968,19.6539368 12.7020901,19.5784417 C12.7501779,19.4612426 12.8046737,19.3539556 12.8654382,19.257707 C12.9252276,19.1612895 13.0122928,19.0543405 13.1248506,18.9370006 C13.1735235,18.8855535 13.2865271,18.7665522 13.4636664,18.5777158 C13.6403878,18.3875278 13.861993,18.1553824 14.1282034,17.8785762 L15.0098879,16.9591463 L15.9885281,15.9385399 L18.5860788,13.2306553 L20.845956,15.5986851 L18.2477088,18.3072455 L18.2477088,18.3072455 Z M22.5852254,13.6967484 C22.5450779,13.8063444 22.4808865,13.9107873 22.3918153,14.0115414 C22.2956118,14.1119575 22.208686,14.1993359 22.1319572,14.2761827 C22.05612,14.3513681 21.9896718,14.418866 21.9328636,14.4777471 C21.8687,14.5442031 21.8079355,14.6035629 21.7521302,14.6538555 L19.4922252,12.2987508 C19.5889859,12.2060503 19.7042741,12.0952434 19.8365853,11.9645279 C19.9695094,11.8343192 20.0805071,11.7319319 20.1691603,11.6557046 C20.2815788,11.5646092 20.3988451,11.4986038 20.5192319,11.4609266 C20.62853,11.4266285 20.7364908,11.4097329 20.8421113,11.4097329 C20.8532277,11.4097329 20.8644278,11.4097329 20.8757114,11.4101835 C20.9921141,11.4153648 21.1053684,11.4334712 21.2138029,11.4666993 C21.3227945,11.5011099 21.4171592,11.5387871 21.4975378,11.5810824 C21.6672939,11.6734732 21.8547417,11.8343192 22.0600762,12.0649722 C22.2658286,12.2959349 22.4239389,12.5374292 22.5373326,12.7897931 C22.5697905,12.8657387 22.595701,12.9535395 22.6150365,13.0544625 C22.6355142,13.1551602 22.6456277,13.2596031 22.6456277,13.3693963 C22.6457113,13.4780631 22.6260694,13.5870959 22.5852254,13.6967484 L22.5852254,13.6967484 Z" id="Shape" stroke-width="0.400000006"></path>
                            <path d="M8.67685535,21.9137623 L3.65182179,21.9137623 C2.7885264,21.9137623 2.08607897,21.2113432 2.08607897,20.3480257 L2.08607897,3.65135222 C2.08607897,2.78819702 2.7885264,2.08621066 3.65182179,2.08621066 L20.3484572,2.08621066 C21.2116131,2.08621066 21.9136142,2.78819702 21.9136142,3.65135222 L21.9136142,7.90127048 C21.9136142,8.33925806 22.2689525,8.69432169 22.7068071,8.69432169 C23.1448011,8.69432169 23.5,8.3392851 23.5,7.90127048 L23.5,3.6515145 C23.5,1.91384465 22.0860389,0.500000026 20.3484851,0.500000026 L3.65182179,0.5 C1.91384948,0.5 0.5,1.91384465 0.5,3.65151447 L0.5,20.3480528 C0.5,22.0859119 1.91384948,23.5 3.65182179,23.5 L8.67685535,23.5 C9.11484938,23.5 9.47004825,23.1448011 9.47004825,22.7068135 C9.47004825,22.268826 9.11484938,21.9137623 8.67685535,21.9137623 L8.67685535,21.9137623 Z" id="Shape" stroke-width="0.300000012"></path>
                            <path d="M17.9900026,5.41457397 C17.9900026,4.95847982 17.6312446,4.58873772 17.1891763,4.58873772 L5.77865507,4.58873772 C5.33644596,4.58873772 4.9778288,4.95845166 4.9778288,5.41457397 C4.9778288,5.87083709 5.33644599,6.24055106 5.77865507,6.24055106 L17.1891763,6.24055106 C17.6312446,6.24055106 17.9900026,5.87083712 17.9900026,5.41457397 L17.9900026,5.41457397 Z" id="Shape" stroke-width="0.4"></path>
                            <path d="M4.97785695,9.77222488 C4.97785695,10.2284598 5.33647415,10.598202 5.77868323,10.598202 L13.6521513,10.598202 C14.0944731,10.598202 14.4529776,10.228488 14.4529776,9.77222488 C14.4529776,9.31627156 14.0944731,8.94655759 13.6521513,8.94655759 L5.77868323,8.94655759 C5.33647412,8.94655759 4.97785695,9.31627153 4.97785695,9.77222488 Z" id="Shape" stroke-width="0.4"></path>
                            <path d="M10.2491888,13.6050605 L5.77868323,13.6050605 C5.33647412,13.6050605 4.97785695,13.9747744 4.97785695,14.4307278 C4.97785695,14.8869909 5.33647415,15.2567049 5.77868323,15.2567049 L10.2491888,15.2567049 C10.6913698,15.2567049 11.0498743,14.8869909 11.0498743,14.4307278 C11.0498743,13.9748026 10.6913698,13.6050605 10.2491888,13.6050605 L10.2491888,13.6050605 Z" id="Shape" stroke-width="0.4"></path>
                        </g>
                    </g>
                </g>
            </g>
        </g>
    </g>
</svg>