<?xml version="1.0" encoding="UTF-8" standalone="no"?>
<svg width="24px" height="24px" viewBox="0 0 24 24" version="1.1" xmlns="http://www.w3.org/2000/svg" xmlns:xlink="http://www.w3.org/1999/xlink">
    <!-- Generator: sketchtool 41.2 (35397) - http://www.bohemiancoding.com/sketch -->
    <title>FB69FA52-A1D0-4222-879A-CD73666F6AF9</title>
    <desc>Created with sketchtool.</desc>
    <defs>
        <circle id="path-1" cx="12" cy="12" r="12"></circle>
        <mask id="mask-2" maskContentUnits="userSpaceOnUse" maskUnits="objectBoundingBox" x="0" y="0" width="24" height="24" fill="white">
            <use xlink:href="#path-1"></use>
        </mask>
    </defs>
    <g id="味噌的事" stroke="none" stroke-width="1" fill="none" fill-rule="evenodd">
        <g id="文章-专题未订阅" transform="translate(-123.000000, -602.000000)">
            <g id="bottom" transform="translate(0.000000, 588.000000)">
                <g id="Group-18" transform="translate(90.000000, 0.000000)">
                    <g id="Group-3" transform="translate(33.000000, 14.000000)">
                        <rect id="Rectangle-57" fill-opacity="0" fill="#D8D8D8" x="0" y="0" width="24" height="24"></rect>
                        <use id="Oval-3" stroke="#e78170" mask="url(#mask-2)" stroke-width="3.4" fill-opacity="0" fill="#D8D8D8" xlink:href="#path-1"></use>
                        <path d="M11.9717274,5.0989542 C11.9873419,5.0443033 12.0127716,5.04470062 12.0282726,5.0989542 L13.9717274,11.9010458 C13.9873419,11.9556967 13.9872284,12.0447006 13.9717274,12.0989542 L12.0282726,18.9010458 C12.0126581,18.9556967 11.9872284,18.9552994 11.9717274,18.9010458 L10.0282726,12.0989542 C10.0126581,12.0443033 10.0127716,11.9552994 10.0282726,11.9010458 L11.9717274,5.0989542 Z" id="Polygon" stroke="#e78170" stroke-width="1.7" fill="#e78170" transform="translate(12.000000, 12.000000) rotate(30.000000) translate(-12.000000, -12.000000) "></path>
                        <circle id="Oval-4" fill="#FFFFFF" cx="12.0000061" cy="11.9999756" r="1.39999998"></circle>
                    </g>
                </g>
            </g>
        </g>
    </g>
</svg>