<?xml version="1.0" encoding="UTF-8" standalone="no"?>
<svg width="24px" height="24px" viewBox="0 0 24 24" version="1.1" xmlns="http://www.w3.org/2000/svg" xmlns:xlink="http://www.w3.org/1999/xlink">
    <!-- Generator: sketchtool 41.2 (35397) - http://www.bohemiancoding.com/sketch -->
    <title>C0436E27-0543-4D4F-83E5-B17CC0E7C12A</title>
    <desc>Created with sketchtool.</desc>
    <defs></defs>
    <g id="味噌的事" stroke="none" stroke-width="1" fill="none" fill-rule="evenodd">
        <g id="味噌圈子-个人主页-2" transform="translate(-28.000000, -275.000000)">
            <g id="Group-6" transform="translate(16.000000, 263.000000)">
                <g id="tips" transform="translate(12.000000, 12.000000)">
                    <rect id="Rectangle-8" fill-opacity="0" fill="#D8D8D8" x="0" y="0" width="24" height="24"></rect>
                    <path d="M6.68878849,3.20282914 C8.07042651,1.76503215 9.98856071,0.967772516 11.9822933,1.00261933 C16.1199807,1.00804041 19.4782868,4.35071609 19.5030104,8.48833317 C19.5042017,8.77485303 19.49085,9.06124872 19.4630066,9.34641499 C19.4258895,9.40603825 19.4120064,9.47723364 19.4240029,9.54643407 L19.3069918,10.2465008 C19.2579871,10.2465008 19.267988,10.3155074 19.267988,10.3645121 C19.1899806,10.6265371 19.1109731,10.8645598 19.0329656,11.0645788 L18.9939619,11.139586 C18.9042455,11.3920617 18.8000631,11.639161 18.6819321,11.8796566 C18.6655583,11.9185533 18.6540213,11.922039 18.6429284,11.9196604 C18.5173391,12.1762504 18.3736282,12.4235667 18.2128874,12.6597309 C18.0568725,12.8947534 17.8908567,13.1297758 17.704839,13.3597977 L17.6658353,13.3988014 C17.495979,13.5935446 17.3132157,13.776642 17.1187831,13.9468537 C17.0979943,13.9575505 17.078527,13.9706406 17.0607776,13.9858574 C16.9819162,14.0562124 16.9099191,14.1339023 16.8457571,14.2178795 C16.792953,14.211884 16.7435208,14.2448388 16.7287459,14.295887 L16.3577105,14.589915 L16.278703,14.6489206 L16.2206974,14.6879244 C16.0031713,14.8511757 15.8287758,15.0650505 15.712649,15.3109838 C15.6383272,15.4944505 15.5327532,15.6636395 15.4006192,15.8110315 C15.2322995,15.9359035 15.0227672,15.992041 14.8145634,15.9680464 L9.18902691,15.9680464 C8.98080808,15.9922455 8.77120153,15.9360881 8.60297102,15.8110315 C8.46650004,15.6629928 8.35442484,15.4942048 8.27093936,15.3109838 C8.14939974,15.0741251 7.98375145,14.862652 7.78289282,14.6879244 C7.75194021,14.68785 7.72276635,14.6734477 7.70388529,14.6489206 L7.64587976,14.589915 L7.27484438,14.295887 L7.15783322,14.2178795 L7.00181834,14.0628648 L6.88380709,13.9468537 L6.33675492,13.3988014 L6.2977512,13.3597977 C5.94001148,12.9104977 5.62621029,12.427907 5.36066184,11.9186603 C5.32133235,11.901799 5.31836104,11.8897707 5.32165812,11.8786565 C5.20316301,11.6381943 5.09864592,11.3910932 5.00862827,11.1385859 C4.96995941,11.1222175 4.96678249,11.1105576 4.96962455,11.0995822 C4.88334907,10.8300687 4.80529238,10.5965657 4.73560223,10.3605117 C4.72706661,10.3415268 4.72036873,10.321768 4.71560033,10.3015061 L4.69659852,10.2425004 C4.64310364,10.0117994 4.60402432,9.77799154 4.57958736,9.54243369 C4.57958736,9.49342901 4.53958354,9.39541967 4.53958354,9.34241461 C4.51240633,9.05721451 4.49972214,8.77081882 4.50157992,8.48433279 C4.47547602,6.49907404 5.26648477,4.58951819 6.68878849,3.20282914 Z M15.1665969,17.2211659 C15.5107031,17.2211659 15.7896563,17.5001191 15.7896563,17.8442253 C15.7896563,18.1883316 15.5107031,18.4672848 15.1665969,18.4672848 L8.91600088,18.4672848 C8.57189466,18.4672848 8.29294146,18.1883316 8.29294146,17.8442253 C8.29294146,17.5001191 8.57189466,17.2211659 8.91600088,17.2211659 L15.1665969,17.2211659 Z M14.8535671,19.7164039 C14.8535671,19.7164039 14.2374268,20.5542603 13.4276123,20.8179932 C12.6177979,21.0817261 11.7135171,21.2386757 10.6357459,20.8179932 C9.55797477,20.3973106 9.19402739,19.7164039 9.19402739,19.7164039 L14.8535671,19.7164039 Z M14.7945615,5.65906337 C15.4449835,6.23741792 15.8102921,7.07105208 15.7946568,7.941281 C15.7946568,8.28649189 16.0745055,8.56634061 16.4197164,8.56634061 C16.7649273,8.56634061 17.044776,8.28649189 17.044776,7.941281 C17.1010805,6.71942257 16.6150313,5.53504358 15.7166494,4.70497239 C14.8949853,3.92366254 13.8031817,3.49009431 12.6693588,3.49485699 C12.4402638,3.48568769 12.2245359,3.60268199 12.1072593,3.7996967 C11.9899827,3.99671141 11.9899827,4.24212169 12.1072593,4.4391364 C12.2245359,4.63615111 12.4402638,4.75314541 12.6693588,4.74397611 C13.4669498,4.76114836 14.2304659,5.08929173 14.7945615,5.65906337 Z" id="Shape" fill="#F9C219"></path>
                </g>
            </g>
        </g>
    </g>
</svg>