<?xml version="1.0" encoding="UTF-8" standalone="no"?>
<svg width="22px" height="22px" viewBox="0 0 22 22" version="1.1" xmlns="http://www.w3.org/2000/svg" xmlns:xlink="http://www.w3.org/1999/xlink">
    <!-- Generator: sketchtool 40.3 (33839) - http://www.bohemiancoding.com/sketch -->
    <title>B68963FC-2CDD-4FA8-AB5E-3F18FEE9B137</title>
    <desc>Created with sketchtool.</desc>
    <defs></defs>
    <g id="Page-1" stroke="none" stroke-width="1" fill="none" fill-rule="evenodd">
        <g id="味噌的事" transform="translate(-315.000000, -89.000000)" stroke="#757575" fill="#757575">
            <g id="Group-6" transform="translate(0.000000, 72.000000)">
                <g id="account" transform="translate(315.000000, 17.000000)">
                    <g id="Group" transform="translate(1.000000, 1.000000)">
                        <path d="M15.5,5.78108309 C15.5,2.59187465 12.9256373,0.00651041016 9.75,0.00651041016 C6.57436271,0.00651041016 4,2.59187465 4,5.78108309 C4,8.97029146 6.57436271,11.5556557 9.75,11.5556557 C12.9256373,11.5556557 15.5,8.97029146 15.5,5.78108309 L15.5,5.78108309 Z M5,5.78108309 C5,3.14651959 7.12664746,1.01078393 9.75,1.01078393 C12.3733525,1.01078393 14.5,3.14651959 14.5,5.78108309 C14.5,8.41564654 12.3733525,10.5513822 9.75,10.5513822 C7.12664746,10.5513822 5,8.41564654 5,5.78108309 L5,5.78108309 Z" id="Shape"></path>
                        <path d="M0,19.5898438 L0.5,19.5898438 L9.5,19.5898438 L19.5,19.5898438 L20,19.5898438 L20,19.087707 C20,14.579349 15.3728696,10.5513822 10,10.5513822 C9.67671963,10.5513822 9.35525559,10.5644705 9.03633863,10.59048 C8.76110232,10.6129271 9.47764842,10.8552007 9.5,11.1316132 C9.79199287,11.1077996 9.70373488,11.5556557 10,11.5556557 C14.8498212,11.5556557 19,15.5 19,18.5855703 C17,18.5899963 9.5,18.5855703 9.5,18.5855703 C9.5,18.5855703 1.76348877,18.5899963 1,18.5855703 C1,16.5999985 2.10047892,14.1129808 4.80066724,12.7554368 C5.04759522,12.6312915 5.14755856,12.3296217 5.02394151,12.0816385 C4.90032452,11.8336552 4.59993845,11.7332647 4.35301044,11.85741 C1.33031694,13.3770964 0,16.0194471 0,19.087707 L0,19.5898438 Z" id="Shape"></path>
                    </g>
                </g>
            </g>
        </g>
    </g>
</svg>