<?xml version="1.0" encoding="UTF-8" standalone="no"?>
<svg width="21px" height="22px" viewBox="0 0 21 22" version="1.1" xmlns="http://www.w3.org/2000/svg" xmlns:xlink="http://www.w3.org/1999/xlink">
    <!-- Generator: sketchtool 40.3 (33839) - http://www.bohemiancoding.com/sketch -->
    <title>9AB37CD3-1E43-4225-989F-F7C41CE3BB78</title>
    <desc>Created with sketchtool.</desc>
    <defs></defs>
    <g id="Page-1" stroke="none" stroke-width="1" fill="none" fill-rule="evenodd">
        <g id="味噌的事" transform="translate(-216.000000, -89.000000)" stroke="#757575" fill="#757575">
            <g id="Group-6" transform="translate(0.000000, 72.000000)">
                <g id="search" transform="translate(216.000000, 17.000000)">
                    <path d="M20.0949559,20.2291297 C20.0733659,20.1903894 20.0487078,20.154784 20.0176235,20.1143271 C19.9746108,20.058345 19.9145255,19.9876784 19.8351265,19.8988196 C19.6957789,19.7428698 19.4926568,19.5262905 19.2234818,19.2458107 C18.8026479,18.8073028 16.7780151,16.791626 14.9968262,14.9334717 C16.1633301,13.6956177 17.2174111,11.5466221 17.2174111,9.24999559 C17.2174111,4.69364883 13.5884774,1 9.1119608,1 C4.63544416,1 1.00651041,4.69364883 1.00651041,9.24999559 C1.00651041,13.8063423 4.63544416,17.4999912 9.1119608,17.4999912 C9.21009191,17.4999912 9.31164607,17.4953937 9.42476334,17.4866732 C9.50560551,17.4804409 9.57577592,17.473714 9.70413416,17.4604845 C9.96404113,17.4336967 10.0586884,17.4260658 10.1679174,17.4260656 C10.3534453,17.4260653 10.6477473,17.3602916 11.0857451,17.2388607 C11.1371324,17.224614 11.1898349,17.2097403 11.2436803,17.1943047 C11.4096986,17.1467131 11.5794485,17.0958686 11.7440856,17.0450351 C11.8429732,17.0145025 11.9184851,16.9906624 11.9615864,16.9768209 C12.2203179,16.8937326 12.363885,16.6128925 12.2822525,16.349547 C12.2006199,16.0862015 11.9247003,15.9400741 11.6659687,16.0231625 C11.6261472,16.0359507 11.554051,16.0587124 11.4588833,16.0880965 C11.3000949,16.1371241 11.1364476,16.1861407 10.9773346,16.2317528 C10.9261262,16.2464325 10.8761283,16.2605429 10.8275413,16.2740132 C10.4909468,16.367331 10.2281387,16.426066 10.1679156,16.4260661 C10.0128655,16.4260664 9.90079195,16.4351022 9.60515338,16.4655728 C9.4846885,16.4779888 9.4207193,16.4841213 9.350561,16.4895299 C9.2604243,16.4964788 9.18282625,16.4999917 9.1119608,16.4999917 C5.17805225,16.4999917 1.98898926,13.2540579 1.98898926,9.24999559 C1.98898926,5.2459333 5.17805225,1.99999947 9.1119608,1.99999947 C13.0458693,1.99999947 16.2349323,5.2459333 16.2349323,9.24999559 C16.2349323,11.2690516 15.4206266,13.1544742 14.0083057,14.5155271 C13.8275375,14.8586529 13.8275375,14.8586529 13.87064,15.0161537 C13.9016817,15.1075231 13.9016817,15.1075231 13.925956,15.151373 C13.9474654,15.1896808 13.9720746,15.2251307 14.003016,15.2653651 C14.0461787,15.3214911 14.1063935,15.3923055 14.1858507,15.4812417 C14.3254194,15.6374606 14.5286043,15.8541488 14.7976257,16.1345143 C15.2187759,16.5734237 15.6454432,17.0092923 16.6624279,18.0430068 C17.683482,19.0808574 19.1233092,20.6119187 19.2984676,20.8227979 C19.4736261,21.0336771 19.7835763,21.0601022 19.9907607,20.8818201 C20.1930421,20.5377507 20.1930421,20.5377507 20.1509063,20.3691332 C20.1195854,20.2738746 20.1195854,20.2738746 20.0949559,20.2291297 Z" id="Shape"></path>
                </g>
            </g>
        </g>
    </g>
</svg>