<?xml version="1.0" encoding="UTF-8" standalone="no"?>
<svg width="22px" height="22px" viewBox="0 0 22 22" version="1.1" xmlns="http://www.w3.org/2000/svg" xmlns:xlink="http://www.w3.org/1999/xlink">
    <!-- Generator: sketchtool 41 (35326) - http://www.bohemiancoding.com/sketch -->
    <title>16852367-ADFB-4113-B547-BAF095B9150D</title>
    <desc>Created with sketchtool.</desc>
    <defs></defs>
    <g id="味噌的事" stroke="none" stroke-width="1" fill="none" fill-rule="evenodd" stroke-opacity="0.54" stroke-linecap="round" fill-opacity="0" stroke-linejoin="round">
        <g transform="translate(-268.000000, -89.000000)" stroke="#000000" id="Group-6" stroke-width="1.80000007" fill="#000000">
            <g transform="translate(0.000000, 72.000000)">
                <g id="Group-7" transform="translate(268.000000, 17.000000)">
                    <path d="M6.76470588,18.1468147 C7.04181985,19.0387753 8.04080021,19.9731948 8.04080021,19.9731948 C8.57524338,20.5523834 9.74390342,20.9736363 11,20.9736532 C14.001709,20.9736938 14.7058824,17.571918 14.7058824,17.571918 L19.4924316,17.5747126 C19.7727539,17.5748695 20,17.3574847 20,17.0741945 C20,16.7735725 19.8381855,16.4018326 19.6284583,16.2106282 L17.75,14.4980737 L17.75,9.71794872 C17.75,6.56923077 15.905,3.93333333 12.6875,3.23589744 L12.6875,2.53846154 C12.6875,1.68717949 11.93375,1 11,1 C10.06625,1 9.3125,1.68717949 9.3125,2.53846154 L9.3125,3.23589744 C6.08375,3.93333333 4.25,6.55897436 4.25,9.71794872 L4.25,14.4980737 L2.37154174,16.2106282 C2.1663449,16.3977022 2,16.7668678 2,17.050158 C2,17.3507799 2.2265543,17.5749967 2.49836861,17.5749967 L3.97497112,17.5749967 L9.41176471,17.5749967" id="Shape"></path>
                </g>
            </g>
        </g>
    </g>
</svg>