<?xml version="1.0" encoding="UTF-8" standalone="no"?>
<svg width="21px" height="21px" viewBox="0 0 21 21" version="1.1" xmlns="http://www.w3.org/2000/svg" xmlns:xlink="http://www.w3.org/1999/xlink">
    <!-- Generator: sketchtool 40.3 (33839) - http://www.bohemiancoding.com/sketch -->
    <title>E80744E6-D8C2-4004-82CD-6BC1B0014D52</title>
    <desc>Created with sketchtool.</desc>
    <defs></defs>
    <g id="Page-1" stroke="none" stroke-width="1" fill="none" fill-rule="evenodd">
        <g id="味噌的事" transform="translate(-266.000000, -89.000000)" stroke="#757575" fill="#757575">
            <g id="Group-6" transform="translate(0.000000, 72.000000)">
                <g id="Group-7" transform="translate(266.000000, 17.000000)">
                    <path d="M2.00285854,2.50057795 C1.45095792,2.50057795 1.00355406,2.94921293 1.00355406,3.50742181 L1.00355406,17.4910477 C1.00355406,18.9420441 2.11382186,20.1201613 3.47686679,20.1201613 L18.6893155,20.1201613 C19.2427343,20.1201613 19.6913688,19.6663681 19.6913688,19.1266076 L19.6913688,9.55915708 C19.6913688,9.26832944 19.4699438,9.032567 19.1968023,9.032567 C18.9236608,9.032567 18.7022358,9.26832944 18.7022358,9.55915708 L18.7022358,18.5409396 L18.1968023,19.0669811 L3.47686679,19.0669811 C2.65934814,19.0669811 1.99268711,18.3595799 1.99268711,17.4910477 L1.99268711,4.0797996 L2.49812057,3.55375806 L10.6819448,3.55375806 C10.9550863,3.55375806 11.1765113,3.31799566 11.1765113,3.02716803 C11.1765113,2.73634034 10.9550863,2.50057795 10.6819448,2.50057795 L2.00285854,2.50057795 Z" id="Shape"></path>
                    <path d="M8.32540986,15.2537951 C8.29965192,15.8020001 8.69878496,16.0875601 9.22168332,15.8898018 L11.9402131,14.8616632 L19.411722,4.4668519 C19.7314787,4.02198726 19.6335201,3.37693561 19.2081937,3.03824687 L17.4356769,1.6267861 C17.0035147,1.28265397 16.3810943,1.37147416 16.0584775,1.80757787 L8.47557107,12.0579216 L8.32540986,15.2537951 Z M18.5980071,3.86703813 L11.357243,13.9647059 L9.30342144,14.7452446 L9.35133361,12.5761415 L16.8415307,2.45111949 L18.5980071,3.86703813 Z" id="Shape"></path>
                    <polygon id="Shape" points="17.0490082 6.35806674 14.8279038 4.64907277 14.2485542 5.50269359 16.4696587 7.21168761"></polygon>
                </g>
            </g>
        </g>
    </g>
</svg>