<?xml version="1.0" encoding="UTF-8" standalone="no"?>
<svg width="22px" height="22px" viewBox="0 0 22 22" version="1.1" xmlns="http://www.w3.org/2000/svg" xmlns:xlink="http://www.w3.org/1999/xlink">
    <!-- Generator: sketchtool 40.3 (33839) - http://www.bohemiancoding.com/sketch -->
    <title>AA01B20C-E118-429B-A11F-ADC3E680FE1C</title>
    <desc>Created with sketchtool.</desc>
    <defs></defs>
    <g id="Page-1" stroke="none" stroke-width="1" fill="none" fill-rule="evenodd" fill-opacity="0.54">
        <g id="味噌的事搜索" transform="translate(-314.000000, -89.000000)" fill="#000000">
            <g id="Group-6" transform="translate(0.000000, 72.000000)">
                <g id="Group" transform="translate(314.000000, 17.000000)">
                    <path d="M19.2965243,4.50347573 C19.6850432,4.11495681 19.6864639,3.48646393 19.2885923,3.08859234 L18.9114077,2.71140766 C18.5185081,2.31850806 17.8813348,2.31866521 17.4965243,2.70347573 L11,9.2 L4.50347573,2.70347573 C4.11495681,2.31495681 3.48646393,2.31353607 3.08859234,2.71140766 L2.71140766,3.08859234 C2.31850806,3.48149194 2.31866521,4.11866521 2.70347573,4.50347573 L9.2,11 L2.70347573,17.4965243 C2.31495681,17.8850432 2.31353607,18.5135361 2.71140766,18.9114077 L3.08859234,19.2885923 C3.48149194,19.6814919 4.11866521,19.6813348 4.50347573,19.2965243 L11,12.8 L17.4965243,19.2965243 C17.8850432,19.6850432 18.5135361,19.6864639 18.9114077,19.2885923 L19.2885923,18.9114077 C19.6814919,18.5185081 19.6813348,17.8813348 19.2965243,17.4965243 L12.8,11 L19.2965243,4.50347573 Z" id="Shape"></path>
                </g>
            </g>
        </g>
    </g>
</svg>